<?xml version="1.0" encoding="UTF-8"?>
<svg width="144px" height="138px" viewBox="0 0 144 138" version="1.1" xmlns="http://www.w3.org/2000/svg" xmlns:xlink="http://www.w3.org/1999/xlink">
    <!-- Generator: Sketch 51 (57462) - http://www.bohemiancoding.com/sketch -->
    <title>Page 1</title>
    <desc>Created with Sketch.</desc>
    <defs>
        <linearGradient x1="100%" y1="0%" x2="0%" y2="100%" id="linearGradient-1">
            <stop stop-color="#81BDFF" offset="0%"></stop>
            <stop stop-color="#1082FF" offset="100%"></stop>
        </linearGradient>
    </defs>
    <g id="SB-WEB-DESIGN" stroke="none" stroke-width="1" fill="none" fill-rule="evenodd">
        <g id="Contact-page" transform="translate(-659.000000, -989.000000)">
            <rect fill="#FFFFFF" x="0" y="0" width="1440" height="2811"></rect>
            <g id="Page-1" transform="translate(659.000000, 989.000000)">
                <path d="M51.4960561,38.3603336 C54.17541,33.9447749 57,33 57,33 L57,50 L49,50 L49,46.6035689 C49,46.6035689 49,42.4725332 51.4960561,38.3603336 Z" id="Fill-1" fill="url(#linearGradient-1)"></path>
                <polygon id="Fill-3" fill="url(#linearGradient-1)" points="49 85 57 85 57 68 49 68"></polygon>
                <polygon id="Fill-5" fill="url(#linearGradient-1)" points="49 119 57 119 57 102 49 102"></polygon>
                <polygon id="Fill-6" fill="url(#linearGradient-1)" points="91 73 97 73 97 67 91 67"></polygon>
                <polygon id="Fill-7" fill="url(#linearGradient-1)" points="83 83 89 83 89 77 83 77"></polygon>
                <polygon id="Fill-8" fill="url(#linearGradient-1)" points="91 93 97 93 97 87 91 87"></polygon>
                <polygon id="Fill-9" fill="url(#linearGradient-1)" points="83 103 89 103 89 97 83 97"></polygon>
                <polygon id="Fill-10" fill="url(#linearGradient-1)" points="91 113 97 113 97 107 91 107"></polygon>
                <polygon id="Fill-11" fill="url(#linearGradient-1)" points="83 123 89 123 89 117 83 117"></polygon>
                <path d="M72,132.649661 L72,57.2614191 L108.358396,57.2614191 L108.358396,132.649661 L72,132.649661 Z M35.6416041,48.9002649 C35.6416041,48.9002649 36.0799834,36.1048022 46.2048396,23.2603912 C56.6085733,10.0613554 67.4577084,6.79481129 67.4577084,6.79481129 L67.4577084,53.9699014 L67.4577084,57.2614191 L67.4577084,132.649661 L35.6406009,132.649661 L35.6416041,48.9002649 Z M72,52.0779031 L72,0 C72,0 57.5254581,3.4033993 43.7922488,19.3025784 C31,34.1089138 31,48.9841762 31,48.9841762 L31,138 L113,138 L113,52.0779031 L72,52.0779031 Z" id="Fill-12" fill="#1082FF"></path>
                <polygon id="Fill-13" fill="#056FE2" points="0 138 144 138 144 133 0 133"></polygon>
                <polygon id="Fill-14" fill="#056FE2" points="128 134 133 134 133 108 128 108"></polygon>
                <path d="M131,105.839162 C126.11827,105.839162 122.160838,101.880733 122.160838,97 C122.160838,92.1172726 126.11827,88.1608376 131,88.1608376 C135.88173,88.1608376 139.839162,92.1172726 139.839162,97 C139.839162,101.880733 135.88173,105.839162 131,105.839162 M131,84 C123.819988,84 118,89.8199877 118,97 C118,104.179015 123.819988,110 131,110 C138.180012,110 144,104.179015 144,97 C144,89.8199877 138.180012,84 131,84" id="Fill-15" fill="#1082FF"></path>
                <polygon id="Fill-16" fill="#056FE2" points="12 136 17 136 17 115 12 115"></polygon>
                <path d="M14,113.678557 C10.8634686,113.678557 8.32144321,111.136531 8.32144321,108 C8.32144321,104.863469 10.8634686,102.321443 14,102.321443 C17.1365314,102.321443 19.6785568,104.863469 19.6785568,108 C19.6785568,111.136531 17.1365314,113.678557 14,113.678557 M14,98 C8.47724477,98 4,102.477245 4,108 C4,113.52378 8.47724477,118 14,118 C19.5227552,118 24,113.52378 24,108 C24,102.477245 19.5227552,98 14,98" id="Fill-17" fill="#1082FF"></path>
            </g>
        </g>
    </g>
</svg>