<?xml version="1.0" encoding="UTF-8"?>
<svg width="513px" height="579px" viewBox="0 0 513 579" version="1.1" xmlns="http://www.w3.org/2000/svg" xmlns:xlink="http://www.w3.org/1999/xlink">
    <!-- Generator: Sketch 51.2 (57519) - http://www.bohemiancoding.com/sketch -->
    <title>Group 49</title>
    <desc>Created with Sketch.</desc>
    <defs>
        <rect id="path-1" x="0" y="0" width="87.1458924" height="123.560068" rx="3"></rect>
    </defs>
    <g id="Page-1" stroke="none" stroke-width="1" fill="none" fill-rule="evenodd">
        <g id="Labs-page-" transform="translate(-501.000000, -1876.000000)">
            <g id="Group-49" transform="translate(720.000000, 2116.013870) rotate(-55.000000) translate(-720.000000, -2116.013870) translate(452.000000, 1892.013870)">
                <polygon id="Fill-3" fill-opacity="0.6" fill="#F1F6FF" transform="translate(148.370602, 228.541933) scale(1, -1) rotate(-90.000000) translate(-148.370602, -228.541933) " points="99.0497926 90.9385465 -70.703155 366.14532 202.881267 366.14532 367.44436 90.9385465"></polygon>
                <polygon id="Fill-3" fill-opacity="0.6" fill="#F1F6FF" opacity="0.635379464" transform="translate(431.048065, 229.685279) rotate(-90.000000) translate(-431.048065, -229.685279) " points="393.685814 125.445865 265.091974 333.924694 472.341814 333.924694 597.004156 125.445865"></polygon>
                <g id="Card" transform="translate(204.087819, 167.905245) scale(1, -1) translate(-204.087819, -167.905245) translate(138.160057, 106.125212)">
                    <rect id="Rectangle-3" fill="#EEF5FF" transform="translate(65.583518, 61.531878) rotate(20.000000) translate(-65.583518, -61.531878) " x="12.5969583" y="15.3428342" width="105.97312" height="92.3780874"></rect>
                    <rect id="Rectangle-3" fill-opacity="0.8" fill="#CBDFFF" transform="translate(68.029801, 55.566620) rotate(20.000000) translate(-68.029801, -55.566620) " x="20.5383015" y="21.3224704" width="94.9829981" height="68.488299"></rect>
                    <ellipse id="Oval-2" fill-opacity="0.4" fill="#FFFFFF" cx="86.7669972" cy="57.2318105" rx="18.565864" ry="18.571912"></ellipse>
                    <ellipse id="Oval-2" fill="#ABCBFF" cx="94.3449008" cy="111.052453" rx="3.41005666" ry="3.41116751"></ellipse>
                    <ellipse id="Oval-2" fill="#ABCBFF" cx="79.1890935" cy="105.746193" rx="3.41005666" ry="3.41116751"></ellipse>
                    <ellipse id="Oval-2" fill="#ABCBFF" cx="64.0332861" cy="100.439932" rx="3.41005666" ry="3.41116751"></ellipse>
                    <ellipse id="Oval-2" fill="#ABCBFF" cx="11.7457507" cy="81.4890017" rx="3.41005666" ry="3.41116751"></ellipse>
                    <polygon id="Path-6" fill-opacity="0.15" fill="#2C7FFF" points="61.0080793 25.5393655 24.1532587 61.1125372 95.4494674 95.5307668"></polygon>
                </g>
                <g id="Card" transform="translate(88.975074, 265.251574) scale(1, -1) rotate(-30.000000) translate(-88.975074, -265.251574) translate(23.047312, 203.471541)">
                    <rect id="Rectangle-3" fill="#EEF5FF" transform="translate(65.583518, 61.531878) rotate(20.000000) translate(-65.583518, -61.531878) " x="12.5969583" y="15.3428342" width="105.97312" height="92.3780874"></rect>
                    <rect id="Rectangle-3" fill-opacity="0.8" fill="#CBDFFF" transform="translate(68.029801, 55.566620) rotate(20.000000) translate(-68.029801, -55.566620) " x="20.5383015" y="21.3224704" width="94.9829981" height="68.488299"></rect>
                    <ellipse id="Oval-2" fill="#ABCBFF" cx="94.3449008" cy="111.052453" rx="3.41005666" ry="3.41116751"></ellipse>
                    <ellipse id="Oval-2" fill="#ABCBFF" cx="79.1890935" cy="105.746193" rx="3.41005666" ry="3.41116751"></ellipse>
                    <ellipse id="Oval-2" fill="#ABCBFF" cx="64.0332861" cy="100.439932" rx="3.41005666" ry="3.41116751"></ellipse>
                    <ellipse id="Oval-2" fill="#ABCBFF" cx="11.7457507" cy="81.4890017" rx="3.41005666" ry="3.41116751"></ellipse>
                    <polygon id="Path-6" fill-opacity="0.15" fill="#2C7FFF" points="99.8437756 39.8682275 40.9977897 29.2844189 31.4609244 70.5550839 75.7117168 49.333043 101.031394 73.335042"></polygon>
                    <rect id="Rectangle-4" fill-opacity="0.4" fill="#FFFFFF" x="46.9830028" y="46.2402707" width="21.2181303" height="34.1116751"></rect>
                </g>
                <g id="Page-1" transform="translate(207.476891, 47.981340) scale(-1, -1) rotate(-3.000000) translate(-207.476891, -47.981340) translate(170.345163, 2.499107)">
                    <path d="M13.1079639,21.0974593 C13.1079639,21.0974593 13.7834044,18.1825194 12.7868528,16.3733737 C11.7903013,14.564228 10.6685846,12.5457507 9.62187884,13.0753749 C8.57517312,13.6049991 9.83594428,15.6125635 9.83594428,15.6125635 C9.83594428,15.6125635 5.36215133,11.2468378 3.86317831,12.1884101 C2.36420529,13.1299824 2.73986,15.4992915 5.0014771,18.6952833 C7.26309421,21.8912751 9.50561449,23.4862701 9.50561449,23.4862701 L13.1079639,21.0974593 Z" id="Fill-4" fill="#E2EDFF" transform="translate(8.148301, 17.770831) rotate(42.000000) translate(-8.148301, -17.770831) "></path>
                    <path d="M51.3952862,9.49809983 C51.3952862,9.49809983 51.5708789,8.44379962 50.7838829,5.08328357 C50.2592189,2.84293954 49.4290615,1.61589678 48.2934107,1.4021553 C47.8111339,2.83109146 47.5699955,3.54555955 47.5699955,3.54555955 C47.5699955,3.54555955 41.1623854,1.02124683 40.0173936,2.23558957 C38.8724019,3.44993231 40.48517,5.87481643 43.1529769,8.48233297 C45.8207837,11.0898495 47.7929368,11.8869106 47.7929368,11.8869106 L51.3952862,9.49809983 Z" id="Fill-4" fill="#E2EDFF" transform="translate(45.527968, 6.644533) scale(-1, 1) rotate(-277.000000) translate(-45.527968, -6.644533) "></path>
                    <path d="M5.02056095,22.111632 C2.86466216,26.3454308 -0.277274374,48.8741008 12.175748,61.1971023 C23.3556079,72.2602343 51.2808835,74.7688546 67.5468198,56.1300384 C76.7801429,45.5502499 72.0645863,31.169279 65.1326627,21.6984188 C58.762547,12.9951384 50.4723633,8.74303538 50.4723633,8.74303538 L46.995607,13.2328704 C46.995607,13.2328704 56.079245,20.0432752 57.4615495,29.0542816 C57.9713777,32.3777645 57.0952071,38.1222274 52.9847106,42.3236082 C47.6068632,47.8203614 37.8487737,51.4399638 30.0943823,51.2614055 C22.8140493,51.0937632 17.9099508,45.1959762 15.5418859,41.1933089 C9.97682884,31.7868639 10.6610524,22.9718565 10.6610524,22.9718565 L5.02056095,22.111632 Z" id="Fill-7" fill="#C6DAFB"></path>
                    <path d="M56.2457403,47.852366 C57.4037702,51.9284821 52.1091285,57.0033204 44.4199949,59.1890638 C36.7308613,61.3738842 29.5584581,59.8416485 28.4004282,55.7664555 C27.2423984,51.6903394 32.5388855,46.614578 40.2280191,44.4297576 C47.9171528,42.2440142 55.0886332,43.7762499 56.2457403,47.852366" id="Fill-10" fill="#E2EDFF"></path>
                    <path d="M59.1860713,81.7294425 C69.1063732,79.5704671 58.2504201,80.2599731 63.2387144,70.7647272 C67.4602176,62.7287972 69.2780015,57.3373583 65.9700039,51.4945561 C63.5127661,47.1544524 59.3835362,45.51976 56.7602064,45.8465139 C52.7850729,46.3431059 49.8064909,49.2774295 44.5865906,50.5087563 C37.7537532,52.1212958 29.6798399,47.9584146 26.5739208,52.6178879 C25.3116221,54.5119527 25.0938572,56.9902977 30.173502,61.7254598 C35.6877541,66.8658335 29.9225187,67.7436384 31.7070842,75.3411274 C33.193607,81.6722144 44.6041226,84.9028318 59.1860713,81.7294425" id="Fill-1" fill="#94A4BD" transform="translate(46.745792, 64.385363) scale(-1, 1) rotate(27.000000) translate(-46.745792, -64.385363) "></path>
                </g>
                <polygon id="Fill-3-Copy" fill="#98BFFF" transform="translate(221.975159, 255.003096) scale(1, -1) rotate(-18.000000) translate(-221.975159, -255.003096) " points="220.544197 251.010759 215.619094 258.995432 223.556697 258.995432 228.331225 251.010759"></polygon>
                <polygon id="Fill-3-Copy" fill="#D1E3FF" transform="translate(238.051918, 269.086803) scale(1, -1) rotate(22.000000) translate(-238.051918, -269.086803) " points="235.730056 262.608888 227.738646 275.564717 240.618101 275.564717 248.36519 262.608888"></polygon>
                <polygon id="Fill-3-Copy" fill="#98BFFF" transform="translate(92.920875, 185.154603) scale(1, -1) rotate(-121.000000) translate(-92.920875, -185.154603) " points="92.1023851 182.871043 89.2852956 187.438163 93.8254925 187.438163 96.5564552 182.871043"></polygon>
                <polygon id="Fill-3-Copy" fill="#D1E3FF" transform="translate(109.465097, 179.263168) scale(1, -1) rotate(117.000000) translate(-109.465097, -179.263168) " points="107.650232 174.199755 101.403807 184.326581 111.470935 184.326581 117.526388 174.199755"></polygon>
                <g id="Card" transform="translate(399.924202, 205.033823) scale(1, -1) rotate(-37.000000) translate(-399.924202, -205.033823) translate(337.785392, 131.883231)">
                    <g id="Rectangle-6" transform="translate(62.202211, 73.008294) rotate(20.000000) translate(-62.202211, -73.008294) translate(18.629264, 11.228260)">
                        <mask id="mask-2" fill="white">
                            <use xlink:href="#path-1"></use>
                        </mask>
                        <use id="Mask" fill="#EEF5FF" xlink:href="#path-1"></use>
                        <rect fill="#D1E3FF" mask="url(#mask-2)" x="0" y="0" width="87.1458924" height="64.4331641"></rect>
                        <rect fill="#B8D4FF" mask="url(#mask-2)" x="6.94014848" y="75.283858" width="42.3162255" height="5.81748301"></rect>
                        <rect fill="#D1E3FF" mask="url(#mask-2)" x="7.74021652" y="89.3614339" width="71.9489167" height="5.81748301"></rect>
                    </g>
                    <ellipse id="Oval-2" fill-opacity="0.4" fill="#FFFFFF" cx="90.8129451" cy="47.5248553" rx="18.565864" ry="18.571912"></ellipse>
                    <ellipse id="Oval-2" fill="#ABCBFF" cx="76.1820749" cy="132.323943" rx="3.41005666" ry="3.41116751"></ellipse>
                    <ellipse id="Oval-2" fill="#ABCBFF" cx="28.1103746" cy="114.812215" rx="3.41005666" ry="3.41116751"></ellipse>
                    <ellipse id="Oval-2" fill="#ABCBFF" cx="12.9545672" cy="109.505954" rx="3.41005666" ry="3.41116751"></ellipse>
                    <polygon id="Path-6" fill-opacity="0.15" fill="#2C7FFF" points="65.0540272 15.8324103 28.1992066 51.405582 99.4954153 85.8238116"></polygon>
                </g>
                <g id="Page-1" transform="translate(430.689996, 114.183053) scale(1, -1) rotate(354.000000) translate(-430.689996, -114.183053) translate(393.179373, 72.111987)">
                    <path d="M20.8355777,18.7962273 C20.8355777,18.7962273 21.5782912,15.5909635 20.4824845,13.6016294 C19.3866777,11.6122953 18.1532396,9.39278049 17.0022835,9.97515448 C15.8513273,10.5575285 17.2376695,12.7650435 17.2376695,12.7650435 C17.2376695,12.7650435 14.7962846,11.9713993 9.9135148,10.3841109 C9.59438839,11.8883635 10.2637822,13.8119258 11.9216962,16.1547979 C14.4085672,19.669106 16.8744394,21.4229603 16.8744394,21.4229603 L20.8355777,18.7962273 Z" id="Fill-4" fill="#E2EDFF" transform="translate(15.458893, 15.651801) rotate(61.000000) translate(-15.458893, -15.651801) "></path>
                    <path d="M50.2283881,9.48734727 C50.2283881,9.48734727 50.9711016,6.28208343 49.8752948,4.29274932 C48.7794881,2.30341521 47.54605,0.0839004421 46.3950938,0.666274434 C45.2441377,1.24864843 46.6304799,3.45616348 46.6304799,3.45616348 C46.6304799,3.45616348 44.189095,2.66251928 39.3063252,1.07523087 C38.9871988,2.57948343 39.6565925,4.50304576 41.3145066,6.84591785 C43.8013776,10.360226 46.2672497,12.1140803 46.2672497,12.1140803 L50.2283881,9.48734727 Z" id="Fill-4" fill="#E2EDFF" transform="translate(44.851704, 6.342921) scale(-1, 1) rotate(-277.000000) translate(-44.851704, -6.342921) "></path>
                    <path d="M10.7578359,18.1086922 C10.2983727,18.9651218 -10.9167736,42.5302621 8.31525615,65.2623153 C19.3917165,78.3545728 51.3152084,80.1857951 69.2012093,59.690579 C79.3541585,48.0570583 74.168939,32.2437628 66.5466055,21.8296182 C59.5420352,12.2595032 50.4261608,7.58389671 50.4261608,7.58389671 L46.6031245,12.520913 C46.6031245,12.520913 56.5914801,20.0096246 58.1114602,29.9181147 C58.6720665,33.5726118 57.7086306,39.8892151 53.1887343,44.5090476 C47.2752609,50.5532697 36.5452794,54.5333795 28.0185614,54.337037 C20.0131175,54.1526978 14.371283,45.6462721 13.3102986,41.8382705 C10.2554876,30.8741831 16.5591536,21.7578623 16.5591536,21.7578623 L10.7578359,18.1086922 Z" id="Fill-7" fill="#C6DAFB"></path>
                    <path d="M56.7745581,50.5884619 C58.0479261,55.0705535 52.2259456,60.6508387 43.770985,63.054279 C35.3160244,65.4567045 27.4292599,63.7718603 26.1558919,59.2907837 C24.8825239,54.8086922 30.7065337,49.227392 39.1614943,46.8249666 C47.6164549,44.4215262 55.5022048,46.1063704 56.7745581,50.5884619" id="Fill-10" fill="#E2EDFF"></path>
                    <path d="M21.688999,56.6241777 C21.688999,56.6241777 24.0987592,58.9616453 24.4751891,69.2808085 C24.9195996,81.4350309 34.511967,86.9026548 50.7461407,81.3193247 C62.7584146,77.1873966 66.6485284,67.1108104 62.5707069,57.8746163 C58.0210798,47.5666177 47.1025833,47.3199809 37.6299429,52.477025 C28.7965232,57.2869507 21.688999,56.6241777 21.688999,56.6241777" id="Fill-12" fill="#94A4BD"></path>
                </g>
                <polygon id="Fill-3-Copy" fill="#98BFFF" transform="translate(483.412836, 229.987867) scale(1, -1) rotate(-18.000000) translate(-483.412836, -229.987867) " points="481.981874 225.995531 477.056771 233.980204 484.994374 233.980204 489.768902 225.995531"></polygon>
                <polygon id="Fill-3-Copy" fill="#D1E3FF" transform="translate(499.489595, 244.071574) scale(1, -1) rotate(22.000000) translate(-499.489595, -244.071574) " points="497.167734 237.593659 489.176323 250.549489 502.055778 250.549489 509.802867 237.593659"></polygon>
            </g>
        </g>
    </g>
</svg>