<?xml version="1.0" encoding="UTF-8"?>
<svg width="16px" height="22px" viewBox="0 0 16 22" version="1.1" xmlns="http://www.w3.org/2000/svg" xmlns:xlink="http://www.w3.org/1999/xlink">
    <!-- Generator: Sketch 51 (57462) - http://www.bohemiancoding.com/sketch -->
    <title>Shape</title>
    <desc>Created with Sketch.</desc>
    <defs></defs>
    <g id="23.-july" stroke="none" stroke-width="1" fill="none" fill-rule="evenodd">
        <g id="labs-page-" transform="translate(-836.000000, -4112.000000)">
            <rect fill="#FFFFFF" x="0" y="0" width="1440" height="5596"></rect>
            <g id="Group-39" transform="translate(40.000000, 3700.000000)" fill="#FF7979" fill-rule="nonzero">
                <g id="Group-42" transform="translate(52.000000, 104.000000)">
                    <g id="Group-33" transform="translate(433.000000, 30.000000)">
                        <g id="fork" transform="translate(189.000000, 275.000000)">
                            <g id="Group-31">
                                <path d="M134.571429,3 C132.828125,3 131.428571,4.39955357 131.428571,6.14285714 C131.428571,7.296875 132.066964,8.30357143 133,8.84375 L133,10.8571429 L129.857143,14 L126.714286,10.8571429 L126.714286,8.84375 C127.647321,8.30357143 128.285714,7.296875 128.285714,6.14285714 C128.285714,4.39955357 126.886161,3 125.142857,3 C123.399554,3 122,4.39955357 122,6.14285714 C122,7.296875 122.638393,8.30357143 123.571429,8.84375 L123.571429,11.6428571 L128.285714,16.3571429 L128.285714,19.15625 C127.352679,19.6964286 126.714286,20.703125 126.714286,21.8571429 C126.714286,23.6004464 128.113839,25 129.857143,25 C131.600446,25 133,23.6004464 133,21.8571429 C133,20.703125 132.361607,19.6964286 131.428571,19.15625 L131.428571,16.3571429 L136.142857,11.6428571 L136.142857,8.84375 C137.075893,8.30357143 137.714286,7.296875 137.714286,6.14285714 C137.714286,4.39955357 136.314732,3 134.571429,3 Z M125.142857,8.03348214 C124.111607,8.03348214 123.252232,7.17410714 123.252232,6.14285714 C123.252232,5.11160714 124.111607,4.25223214 125.142857,4.25223214 C126.174107,4.25223214 127.033482,5.11160714 127.033482,6.14285714 C127.033482,7.17410714 126.174107,8.03348214 125.142857,8.03348214 Z M129.857143,23.7477679 C128.825893,23.7477679 127.966518,22.8883929 127.966518,21.8571429 C127.966518,20.8258929 128.825893,19.9665179 129.857143,19.9665179 C130.888393,19.9665179 131.747768,20.8258929 131.747768,21.8571429 C131.747768,22.8883929 130.888393,23.7477679 129.857143,23.7477679 Z M134.571429,8.03348214 C133.540179,8.03348214 132.680804,7.17410714 132.680804,6.14285714 C132.680804,5.11160714 133.540179,4.25223214 134.571429,4.25223214 C135.602679,4.25223214 136.462054,5.11160714 136.462054,6.14285714 C136.462054,7.17410714 135.602679,8.03348214 134.571429,8.03348214 Z" id="Shape"></path>
                            </g>
                        </g>
                    </g>
                </g>
            </g>
        </g>
    </g>
</svg>