<?xml version="1.0" encoding="utf-8"?>
<!-- Generator: Adobe Illustrator 19.0.0, SVG Export Plug-In . SVG Version: 6.00 Build 0)  -->
<svg version="1.1" id="Layer_1" xmlns="http://www.w3.org/2000/svg" xmlns:xlink="http://www.w3.org/1999/xlink" x="0px" y="0px"
	 viewBox="-199 201 100 100" style="enable-background:new -199 201 100 100;" xml:space="preserve">
<style type="text/css">
	.st0{fill:#2D94F3;}
</style>
<g id="XMLID_10_">
	<path id="XMLID_11_" class="st0" d="M-149.2,202.6c-27.2,0-49.8,22.1-49.8,49.7c0,22.1,14.3,40.6,34.1,47c2.3,0.5,3.2-0.9,3.2-2.3
		s0-5.1,0-9.2c-13.8,3.2-16.6-6-16.6-6c-2.3-5.5-5.5-7.4-5.5-7.4c-4.6-3.2,0.5-3.2,0.5-3.2c5.1,0.5,7.8,5.1,7.8,5.1
		c4.6,7.4,11.5,5.5,14.3,4.1c0.5-3.2,1.8-5.5,3.2-6.5c-11-1.3-22.6-5.4-22.6-24.3c0-5.5,1.8-9.7,5.1-13.4c-0.5-1.4-2.3-6.5,0.5-12.9
		c0,0,4.1-1.4,13.8,5.1c4.1-0.9,8.3-1.8,12.4-1.8s8.3,0.5,12.4,1.8c9.7-6.5,13.8-5.1,13.8-5.1c2.8,6.9,0.9,12,0.5,12.9
		c3.3,3.7,5.1,7.8,5.1,13.4c0,18.9-11.5,23-22.6,24.4c1.8,1.4,3.2,4.6,3.2,9.2c0,6.5,0,12,0,13.8c0,1.4,0.9,2.8,3.2,2.3
		c19.9-6.4,34.2-25.3,34.2-47C-99.5,224.7-122,202.6-149.2,202.6z M-180.1,273.5c0,0.5-0.5,0.5-0.9,0c-0.5,0-0.5-0.5-0.5-0.9
		c0-0.5,0.5-0.5,0.9,0C-180.6,272.6-180.1,273.1-180.1,273.5z M-177.8,275.4c-0.5,0-0.9,0-0.9,0c-0.5-0.5-0.5-0.9,0-0.9s0.9,0,0.9,0
		C-177.8,274.9-177.8,275.4-177.8,275.4z M-176,278.1c-0.5,0-0.9,0-0.9-0.5c-0.5-0.5-0.5-0.9,0-1.4c0.5,0,0.9,0,0.9,0.5
		C-176,277.7-176,278.1-176,278.1z M-173.2,281.4c-0.5,0.5-0.9,0-1.4,0c-0.4-0.5-0.4-1-0.4-1.4c0.5-0.5,0.9,0,1.4,0
		C-173.2,280.4-173.2,281.4-173.2,281.4z M-169.5,282.8c0,0.5-0.5,0.5-1.4,0.5c-0.5,0-0.9-0.5-0.9-0.9c0-0.5,0.5-0.5,1.4-0.5
		C-170,281.8-169.5,282.3-169.5,282.8z M-165.4,283.2c0,0.5-0.5,0.9-0.9,0.9c-0.5,0-0.9-0.5-0.9-0.9c0-0.5,0.5-0.9,0.9-0.9
		C-165.8,282.3-165.4,282.8-165.4,283.2z M-161.2,282.8c0,0.5-0.5,0.9-0.9,0.9c-0.5,0-0.9,0-1.4-0.5c0-0.5,0.5-0.9,0.9-0.9
		C-162.1,282.3-161.7,282.3-161.2,282.8z"/>
</g>
</svg>
