<?xml version="1.0" encoding="utf-8"?>
<!-- Generator: Adobe Illustrator 19.0.0, SVG Export Plug-In . SVG Version: 6.00 Build 0)  -->
<svg version="1.1" id="Layer_1" xmlns="http://www.w3.org/2000/svg" xmlns:xlink="http://www.w3.org/1999/xlink" x="0px" y="0px"
	 viewBox="-14 0 100 100" style="enable-background:new -14 0 100 100;" xml:space="preserve">
<style type="text/css">
	.st0{opacity:0.9031;}
	.st1{fill:#2D94F3;}
</style>
<g id="_x31_1-July" class="st0">
	<g id="Home-page-final" transform="translate(-1064.000000, -4880.000000)">
		<g id="Group-62" transform="translate(-185.000000, 4291.000000)">
			<g id="Group-58" transform="translate(136.000000, 0.000000)">
				<g id="Group-41" transform="translate(45.000000, 0.000000)">
					<g id="Group-43">
						<g id="Group-51" transform="translate(78.000000, 195.000000)">
							<g id="Group-32" transform="translate(18.000000, 0.000000)">
								<g id="Group-31" transform="translate(3.000000, 0.000000)">
									<g id="social-media" transform="translate(917.000000, 391.000000)">
										<g id="dribbble-logo" transform="translate(52.909091, 3.535714)">
											<path id="Shape" class="st1" d="M78.4,24.4c-4.5-7.7-10.5-13.7-18.2-18.2s-16-6.7-25.1-6.7S17.7,1.7,10,6.2
												C2.4,10.7-3.7,16.7-8.2,24.4s-6.7,16-6.7,25.1s2.2,17.5,6.7,25.1C-3.7,82.3,2.3,88.3,10,92.8c7.6,4.5,16,6.7,25.1,6.7
												s17.4-2.2,25.1-6.7c7.6-4.5,13.7-10.5,18.2-18.2s6.7-16,6.7-25.1C85.1,40.4,82.9,32.1,78.4,24.4z M35.2,6.8
												c10.7,0,20.1,3.6,28.1,10.7l-0.8,1.1c-0.3,0.5-1.1,1.3-2.4,2.6c-1.3,1.3-2.7,2.5-4.3,3.7c-1.5,1.2-3.6,2.5-6.3,4
												c-2.6,1.5-5.5,2.8-8.5,3.9c-5-9.2-10.3-17.5-16-24.9C28.5,7.2,31.9,6.8,35.2,6.8z M1.8,23C6,17.7,11,13.7,17,10.9
												c5.4,7.2,10.7,15.4,15.9,24.6C19.7,39,6.5,40.7-6.6,40.7C-5.2,34.2-2.4,28.2,1.8,23z M-4.6,64.9
												c-1.9-4.9-2.9-10-2.9-15.4c0-0.6,0-1.1,0.1-1.4c15.7,0,30.3-2,43.8-6.1c1.4,2.7,2.5,5.1,3.4,7.2
												c-0.2,0.1-0.5,0.2-0.8,0.3c-0.4,0.1-0.7,0.2-0.8,0.2l-2.4,0.8c-1.6,0.6-3.8,1.7-6.5,3.1c-2.7,1.5-5.5,3.2-8.5,5.3
												c-3,2-6.1,4.7-9.3,8.1s-5.9,7-8,10.8C0,74.2-2.7,69.8-4.6,64.9z M35.2,92.3C25,92.3,16,89,8,82.5l1,0.7
												c1.5-3.3,3.7-6.6,6.7-9.6c2.9-3.1,5.8-5.6,8.5-7.5s5.7-3.7,8.9-5.3c3.2-1.7,5.4-2.7,6.6-3.2c1.2-0.5,2.1-0.8,2.8-1.1
												l0.1-0.1h0.1c4.2,11.2,7.3,22,9.1,32.5C46.4,91.1,40.9,92.3,35.2,92.3z M71.1,72.6c-3.2,5-7.2,9.1-12,12.3
												c-1.8-10-4.6-20.2-8.3-30.6c8.6-1.3,17.5-0.7,26.6,1.9C76.3,62.2,74.3,67.6,71.1,72.6z M77.2,48.9
												c-0.4-0.1-1-0.2-1.6-0.3s-1.4-0.2-2.4-0.4c-0.9-0.2-2-0.3-3.1-0.4c-1.1-0.1-2.4-0.2-3.7-0.4c-1.3-0.1-2.7-0.2-4.2-0.3
												s-3-0.1-4.5-0.1s-3.1,0-4.8,0.1c-1.7,0.1-3.3,0.2-4.8,0.5c-0.1-0.2-0.3-0.6-0.5-1.1s-0.3-0.9-0.4-1.1
												c-0.8-1.8-1.8-3.9-2.9-6.2c3-1.2,5.8-2.6,8.6-4.2c2.7-1.6,4.9-3,6.5-4.2s3.2-2.6,4.6-3.9c1.5-1.4,2.4-2.4,2.8-2.9
												s0.8-1.1,1.2-1.6l0.1-0.1c6.3,7.7,9.6,16.6,9.7,26.7L77.2,48.9z"/>
										</g>
									</g>
								</g>
							</g>
						</g>
					</g>
				</g>
			</g>
		</g>
	</g>
</g>
</svg>
