<?xml version="1.0" encoding="utf-8"?>
<!-- Generator: Adobe Illustrator 19.0.0, SVG Export Plug-In . SVG Version: 6.00 Build 0)  -->
<svg version="1.1" id="Layer_1" xmlns="http://www.w3.org/2000/svg" xmlns:xlink="http://www.w3.org/1999/xlink" x="0px" y="0px"
	 viewBox="-14 0 100 100" style="enable-background:new -14 0 100 100;" xml:space="preserve">
<style type="text/css">
	.st0{opacity:0.9031;}
	.st1{fill:#2D94F3;}
</style>
<g id="_x31_1-July" class="st0">
	<g id="Home-page-final" transform="translate(-1257.000000, -4882.000000)">
		<g id="Group-62" transform="translate(-185.000000, 4291.000000)">
			<g id="Group-58" transform="translate(136.000000, 0.000000)">
				<g id="Group-41" transform="translate(45.000000, 0.000000)">
					<g id="Group-43">
						<g id="Group-51" transform="translate(78.000000, 195.000000)">
							<g id="Group-32" transform="translate(18.000000, 0.000000)">
								<g id="Group-31" transform="translate(3.000000, 0.000000)">
									<g id="social-media" transform="translate(917.000000, 391.000000)">
										<g id="social-behance" transform="translate(245.443866, 5.524829)">
											<path id="Shape" class="st1" d="M26.7,46.6c2.1-1,3.6-2.2,4.7-3.5c1.9-2.3,2.9-5.3,2.9-9c0-3.6-0.9-6.7-2.8-9.3
												c-3.1-4.2-8.5-6.4-16-6.5h-29.8v60.8h27.8c3.1,0,6-0.3,8.7-0.8c2.7-0.6,5-1.6,7-3.1c1.7-1.3,3.2-2.9,4.4-4.8
												c1.8-2.9,2.8-6.1,2.8-9.7c0-3.5-0.8-6.5-2.4-8.9C32.2,49.5,29.9,47.7,26.7,46.6z M-2,29h13.4c3,0,5.4,0.3,7.3,0.9
												c2.2,0.9,3.3,2.8,3.3,5.6c0,2.6-0.8,4.3-2.5,5.3s-3.9,1.5-6.5,1.5H-2V29z M19.2,67.6c-1.5,0.7-3.6,1.1-6.2,1.1H-2V52.4
												h15.2c2.6,0,4.7,0.4,6.2,1c2.6,1.2,3.9,3.4,3.9,6.5C23.2,63.7,21.9,66.3,19.2,67.6z"/>
											<rect id="Rectangle-path" x="49.4" y="21.2" class="st1" width="26.4" height="7.6"/>
											<path id="Shape_1_" class="st1" d="M85,51.1c-0.5-3.5-1.8-6.6-3.6-9.3c-2.1-3-4.7-5.3-7.9-6.7c-3.2-1.4-6.7-2.1-10.7-2.1
												c-6.7,0-12.1,2.1-16.3,6.2c-4.2,4.2-6.3,10.1-6.3,17.9c0,8.3,2.3,14.3,7,18c4.6,3.7,10,5.5,16.1,5.5
												c7.4,0,13.1-2.2,17.2-6.6c2.6-2.8,4.1-5.5,4.4-8.1H72.6c-0.7,1.3-1.5,2.3-2.5,3.1c-1.7,1.4-3.9,2.1-6.6,2.1
												c-2.6,0-4.8-0.6-6.6-1.7c-3-1.8-4.6-5-4.8-9.5h33.2C85.5,56.2,85.4,53.2,85,51.1z M52.5,52.3c0.4-2.9,1.5-5.2,3.2-7
												c1.7-1.7,4.1-2.6,7.1-2.6c2.8,0,5.2,0.8,7.1,2.4c1.9,1.6,3,4,3.2,7.1L52.5,52.3L52.5,52.3z"/>
										</g>
									</g>
								</g>
							</g>
						</g>
					</g>
				</g>
			</g>
		</g>
	</g>
</g>
</svg>
