<?xml version="1.0" encoding="UTF-8"?>
<svg width="321px" height="63px" viewBox="0 0 321 63" version="1.1" xmlns="http://www.w3.org/2000/svg" xmlns:xlink="http://www.w3.org/1999/xlink">
    <!-- Generator: Sketch 51.2 (57519) - http://www.bohemiancoding.com/sketch -->
    <title>e-meditek-full</title>
    <desc>Created with Sketch.</desc>
    <defs></defs>
    <g id="SB-WEB-DESIGN" stroke="none" stroke-width="1" fill="none" fill-rule="evenodd">
        <g id="Artboard-2" transform="translate(-68.000000, -89.000000)" fill-rule="nonzero">
            <g id="e-meditek-full" transform="translate(68.352205, 89.616946)">
                <g id="Group" transform="translate(82.133547, 16.195122)" fill="#00529E">
                    <polygon id="Shape" points="20.111783 0.400074895 20.111783 4.90091745 5.20304833 4.90091745 5.20304833 12.0022468 19.311314 12.0022468 19.311314 16.5030894 5.20304833 16.5030894 5.20304833 24.5045873 20.8121934 24.5045873 20.8121934 29.0054298 0.400234487 29.0054298 0.400234487 0.400074895"></polygon>
                    <polygon id="Shape" points="38.7226867 15.3028647 38.7226867 19.8037072 28.5167073 19.8037072 28.5167073 15.3028647"></polygon>
                    <path d="M51.5301903,0.400074895 L59.3347629,21.4040068 C60.635525,17.9033515 62.0363457,14.4026962 63.3371078,10.9020409 C64.7379285,7.40138554 66.0386906,3.9007302 67.3394526,0.400074895 L72.6425595,0.400074895 L72.6425595,29.0054298 L67.9398042,29.0054298 L67.9398042,11.6021719 C66.8391593,14.5027149 65.7385147,17.4032579 64.7379285,20.3038009 C63.6372836,23.2043438 62.6366974,26.1048868 61.5360524,28.9054111 L57.6337663,28.9054111 L51.0298971,11.4021345 L51.0298971,29.0054298 L46.2270835,29.0054298 L46.2270835,0.400074895 L51.5301903,0.400074895 Z" id="Shape"></path>
                    <polygon id="Shape" points="101.359384 0.400074895 101.359384 4.90091745 86.4506493 4.90091745 86.4506493 12.0022468 100.558915 12.0022468 100.558915 16.5030894 86.4506493 16.5030894 86.4506493 24.5045873 102.059794 24.5045873 102.059794 29.0054298 81.7478941 29.0054298 81.7478941 0.400074895"></polygon>
                    <path d="M110.864953,0.400074895 L121.771343,0.400074895 C123.672457,0.400074895 125.373453,0.800149786 126.974391,1.50028085 C128.47527,2.30043064 129.776033,3.30061788 130.876677,4.60086127 C131.977322,5.90110469 132.777791,7.40138554 133.378143,9.10170382 C133.978495,10.8020221 134.278671,12.7023779 134.278671,14.6027336 C134.278671,16.6031081 133.978495,18.5034639 133.378143,20.3038009 C132.777791,22.0041192 131.877264,23.5044 130.776619,24.8046434 C129.675974,26.1048868 128.375212,27.1050741 126.874333,27.8052051 C125.373453,28.5053362 123.672457,28.9054111 121.871402,28.9054111 L110.965012,28.9054111 L110.965012,0.400074895 L110.864953,0.400074895 Z M115.567708,24.5045873 L120.57064,24.5045873 C121.871402,24.5045873 122.972047,24.3045498 124.072691,23.8044562 C125.173336,23.4043813 126.073863,22.7042502 126.874333,21.9041005 C127.674802,21.1039507 128.275153,20.0037447 128.675388,18.80352 C129.075622,17.6032953 129.375798,16.2030332 129.375798,14.7027523 C129.375798,13.0024341 129.175681,11.6021719 128.675388,10.3019285 C128.275153,9.10170382 127.574743,8.00149786 126.874333,7.20134808 C126.073863,6.4011983 125.173336,5.80108598 124.072691,5.40101105 C122.972047,5.00093616 121.871402,4.80089873 120.57064,4.80089873 L115.567708,4.80089873 L115.567708,24.5045873 Z" id="Shape"></path>
                    <polygon id="Shape" points="147.686526 0.400074895 147.686526 29.0054298 142.983771 29.0054298 142.983771 0.400074895"></polygon>
                    <polygon id="Shape" points="177.103761 0.400074895 177.103761 4.90091745 168.298602 4.90091745 168.298602 29.0054298 163.495788 29.0054298 163.495788 4.90091745 154.690629 4.90091745 154.690629 0.400074895"></polygon>
                    <polygon id="Shape" points="204.719941 0.400074895 204.719941 4.90091745 189.811206 4.90091745 189.811206 12.0022468 203.919471 12.0022468 203.919471 16.5030894 189.811206 16.5030894 189.811206 24.5045873 205.420351 24.5045873 205.420351 29.0054298 185.108451 29.0054298 185.108451 0.400074895"></polygon>
                    <polygon id="Shape" points="219.728734 0.400074895 219.728734 12.6023592 231.935886 0.400074895 238.439696 0.400074895 226.732837 12.0022468 238.539755 29.0054298 232.536237 29.0054298 223.330844 15.4028834 219.628675 19.0035575 219.628675 28.9054111 214.825861 28.9054111 214.825861 0.30005617 219.728734 0.30005617"></polygon>
                </g>
                <g id="Group" transform="translate(0.127984, 0.195122)">
                    <rect id="Rectangle-path" fill="#84BE17" x="5.90463246" y="0" width="55.5396433" height="55.5174968"></rect>
                    <rect id="Rectangle-path" fill="#00549F" x="0.103137685" y="5.79918142" width="55.5396433" height="55.5174968"></rect>
                    <g id="Shape" transform="translate(4.125507, 44.073779)" fill="#FFFFFF">
                        <polygon points="8.89562532 0.335063816 8.89562532 2.37122085 2.16589138 2.37122085 2.16589138 5.54144003 8.508859 5.54144003 8.508859 7.57759706 2.16589138 7.57759706 2.16589138 11.1602025 9.17925395 11.1602025 9.17925395 13.1963595 0.0257844212 13.1963595 0.0257844212 0.335063816"></polygon>
                        <path d="M14.4134915,0.335063816 L17.9201727,9.76839893 C18.5132144,8.19617641 19.1062561,6.62395389 19.7250822,5.05173137 C20.3439083,3.45373471 20.93695,1.8815122 21.5299917,0.335063816 L23.9021585,0.335063816 L23.9021585,13.1963595 L21.7620515,13.1963595 L21.7620515,5.38679519 C21.2721475,6.70127631 20.7822435,8.01575743 20.2923395,9.33023856 C19.8024355,10.6447197 19.3383159,11.9334267 18.8741963,13.2221336 L17.1208557,13.2221336 L14.1814317,5.33524691 L14.1814317,13.1963595 L12.0155403,13.1963595 L12.0155403,0.335063816 L14.4134915,0.335063816 Z"></path>
                        <path d="M29.0074739,8.60856265 C29.0332583,9.04672302 29.1106115,9.43333512 29.2653181,9.79417307 C29.4200246,10.155011 29.6005156,10.4643007 29.8583598,10.7220421 C30.0904196,10.9797835 30.3740482,11.1859766 30.7092457,11.3148473 C31.0186587,11.4694921 31.3796406,11.5210404 31.7921914,11.5210404 C32.1273888,11.5210404 32.4625863,11.4952663 32.7719994,11.4179439 C33.0814124,11.3406215 33.365041,11.2375249 33.5971008,11.0828801 C33.8291606,10.9282352 34.035436,10.7220421 34.1643581,10.4643007 C34.3190646,10.2065593 34.3706335,9.92304377 34.3706335,9.56220581 C34.3706335,9.27869028 34.2932802,9.04672302 34.1385737,8.8405299 C33.9838672,8.63433679 33.7518074,8.45391781 33.4939632,8.29927297 C33.2361189,8.14462813 32.9267059,8.01575743 32.5915084,7.91266088 C32.2563109,7.78379018 31.9211135,7.68069362 31.5601316,7.57759706 C31.0444431,7.42295222 30.5287547,7.24253324 30.0130663,7.06211427 C29.4973779,6.88169529 29.0332583,6.62395389 28.6207075,6.34043836 C28.2081568,6.03114868 27.8471749,5.67031073 27.5893307,5.20637621 C27.3314865,4.7424417 27.2025644,4.20118476 27.2025644,3.50528299 C27.2025644,2.93825192 27.3057021,2.42276913 27.5377619,2.01038289 C27.7440372,1.57222252 28.0534503,1.21138456 28.4402166,0.927869028 C28.8269829,0.618579352 29.2911025,0.412386235 29.8325753,0.257741397 C30.3740482,0.103096559 30.9670899,0.0257741397 31.6374848,0.0257741397 C32.4883707,0.0257741397 33.2103345,0.154644838 33.7775918,0.438160374 C34.3448491,0.72167591 34.8089686,1.08251387 35.1699505,1.4949001 C35.5309324,1.93306047 35.7887766,2.39699499 35.9434832,2.93825192 C36.0981897,3.45373471 36.2013274,3.96921751 36.2271118,4.45892616 L34.035436,4.45892616 C33.9838672,3.65992783 33.7260229,3.04134848 33.2619034,2.62896225 C32.7977838,2.21657601 32.2563109,2.01038289 31.6374848,2.01038289 C31.3538562,2.01038289 31.0702276,2.03615703 30.8123833,2.08770531 C30.5287547,2.13925359 30.2966949,2.24235015 30.0904196,2.34544671 C29.8841442,2.47431741 29.7036532,2.62896225 29.5747311,2.80938122 C29.445809,2.9898002 29.3684558,3.22176746 29.3684558,3.50528299 C29.3684558,3.78879853 29.445809,4.04653993 29.6005156,4.2269589 C29.7552221,4.43315202 29.9872819,4.613571 30.2451261,4.76821584 C30.5287547,4.92286067 30.8123833,5.07750551 31.1733652,5.18060207 C31.5085627,5.30947277 31.8695446,5.41256933 32.2305265,5.51566589 C32.7462149,5.67031073 33.2361189,5.8507297 33.7518074,6.05692282 C34.2674958,6.26311594 34.7316154,6.49508319 35.1441661,6.80437287 C35.5567169,7.11366255 35.8919143,7.4745005 36.1497585,7.91266088 C36.4076028,8.35082125 36.5365249,8.89207818 36.5365249,9.51065753 C36.5365249,10.155011 36.4076028,10.7478162 36.175543,11.2375249 C35.9434832,11.7272335 35.6082857,12.1396198 35.1699505,12.4746836 C34.7316154,12.8097474 34.2417114,13.0674888 33.6486697,13.2479078 C33.055628,13.4283268 32.4368019,13.5056492 31.7664069,13.5056492 C31.1475808,13.5056492 30.5545391,13.4025526 29.9614974,13.1705854 C29.3684558,12.9386181 28.8527673,12.6035543 28.3886478,12.1653939 C27.9245282,11.7272335 27.5635463,11.2117508 27.2799176,10.6189455 C26.996289,10.0003662 26.8415825,9.33023856 26.8157981,8.55701437 L29.0074739,8.55701437 L29.0074739,8.60856265 Z"></path>
                        <polygon points="41.4355649 0.335063816 41.4355649 11.1859766 47.4691195 11.1859766 47.4691195 13.2221336 39.2954579 13.2221336 39.2954579 0.360837955 41.4355649 0.360837955"></polygon>
                    </g>
                </g>
            </g>
        </g>
    </g>
</svg>