<?xml version="1.0" encoding="UTF-8"?>
<svg width="141px" height="116px" viewBox="0 0 141 116" version="1.1" xmlns="http://www.w3.org/2000/svg" xmlns:xlink="http://www.w3.org/1999/xlink">
    <!-- Generator: Sketch 50.2 (55047) - http://www.bohemiancoding.com/sketch -->
    <title>Page 1</title>
    <desc>Created with Sketch.</desc>
    <defs>
        <filter x="-10.2%" y="-10.8%" width="120.5%" height="125.5%" filterUnits="objectBoundingBox" id="filter-1">
            <feOffset dx="0" dy="2" in="SourceAlpha" result="shadowOffsetOuter1"></feOffset>
            <feGaussianBlur stdDeviation="4" in="shadowOffsetOuter1" result="shadowBlurOuter1"></feGaussianBlur>
            <feColorMatrix values="0 0 0 0 0.11372549   0 0 0 0 0.478431373   0 0 0 0 0.933333333  0 0 0 0.411401721 0" type="matrix" in="shadowBlurOuter1" result="shadowMatrixOuter1"></feColorMatrix>
            <feMerge>
                <feMergeNode in="shadowMatrixOuter1"></feMergeNode>
                <feMergeNode in="SourceGraphic"></feMergeNode>
            </feMerge>
        </filter>
        <linearGradient x1="50%" y1="90.1969006%" x2="37.8371224%" y2="0%" id="linearGradient-2">
            <stop stop-color="#329DFF" offset="0%"></stop>
            <stop stop-color="#2C62D4" offset="100%"></stop>
        </linearGradient>
    </defs>
    <g id="Final-Designs" stroke="none" stroke-width="1" fill="none" fill-rule="evenodd">
        <g id="Home-page-final" transform="translate(-653.000000, -3405.000000)">
            <g id="Group-56" transform="translate(78.000000, 3131.000000)">
                <g id="Group-60">
                    <g id="Group-50" transform="translate(0.000000, 278.000000)">
                        <g id="Page-1" filter="url(#filter-1)" transform="translate(582.000000, 1.000000)">
                            <g id="Group-10" transform="translate(0.000000, 0.553408)">
                                <polygon id="Fill-1" fill="url(#linearGradient-2)" points="45.678398 13.8980633 0.00105102041 94.8707776 75.8847245 94.8707776 121.456969 13.8980633"></polygon>
                                <path d="M49.0879082,92.5732469 C46.2795816,98.6271245 40.3728469,102.141737 35.7273367,100.491635 C31.1764184,98.8247163 29.6293163,92.5185939 32.4376429,86.4647163 C35.2480714,80.4087367 41.1548061,76.8962265 45.8024184,78.5463286 C50.3617449,80.2952265 51.8016429,86.5319816 49.0879082,92.5732469" id="Fill-2" fill="#2C62D4"></path>
                                <polygon id="Fill-5" fill="#45A5FF" points="68.7247531 27.4387796 21.7273245 27.4387796 0.000630612245 65.9103306 46.9980592 65.9103306"></polygon>
                                <g id="Group-9" transform="translate(75.673469, 0.000000)" fill="#45A5FF">
                                    <path d="M22.4676633,36.3209531 C16.9266837,34.6960755 13.7820306,28.7872388 15.4447449,23.1222388 C17.1053571,17.4593408 22.9469286,14.1843612 28.4837041,15.8092388 C34.0246837,17.4362184 37.1714388,23.3471571 35.5087245,29.0079531 C33.8481122,34.6729531 28.0065408,37.9458306 22.4676633,36.3209531 M49.7773776,28.6337898 L44.3120714,25.8233612 C44.3099694,24.522198 44.185949,23.237851 43.931602,21.9892388 L48.7536837,17.9617286 C49.1993163,17.5875653 49.3401531,16.8728714 49.0668878,16.3599735 L46.1723776,10.9219939 C45.9012143,10.4090959 45.2390714,10.1463408 44.6946429,10.3292184 L38.7837041,12.3219531 C37.8714184,11.4012592 36.8540306,10.5793612 35.7504592,9.86256531 L36.3999898,3.65313673 C36.4588469,3.07087143 36.0678673,2.46968776 35.5150306,2.30783061 L29.6692551,0.592565306 C29.1185204,0.430708163 28.4626837,0.724993878 28.1978265,1.2463 L25.3600714,6.87766735 C24.0925408,6.89868776 22.8460306,7.04372857 21.628949,7.31909592 L17.7801122,2.51383061 C17.4206633,2.06399388 16.7185816,1.92736122 16.2119898,2.21113673 L10.8391735,5.22546327 C10.3346837,5.50923878 10.0677245,6.18819796 10.2400918,6.74103469 L12.1109082,12.6982184 C11.2364592,13.604198 10.4481939,14.6047694 9.75241837,15.6873204 L3.63337755,15.0945449 C3.06582653,15.0419939 2.46884694,15.4518918 2.30278571,16.0131367 L0.549683673,21.9913408 C0.38572449,22.5525857 0.665295918,23.2189327 1.1739898,23.4837898 L6.63929592,26.2921163 C6.63719388,27.6037898 6.76121429,28.8986469 7.01766327,30.1556673 L2.27966327,34.1138102 C1.83192857,34.4858714 1.69109184,35.2026673 1.96435714,35.7134633 L4.85676531,41.1514429 C5.13003061,41.6643408 5.79217347,41.9270959 6.33870408,41.7463204 L12.1424388,39.7893204 C13.0084796,40.6658714 13.9712143,41.4541367 15.0138265,42.1499122 L14.3579898,48.422402 C14.2970306,49.0046673 14.6943163,49.603749 15.242949,49.7656061 L21.0908265,51.4808714 C21.6415612,51.6427286 22.297398,51.3505449 22.5622551,50.8292388 L25.3726837,45.2546265 C26.6717449,45.2441163 27.9581939,45.1053816 29.2110102,44.8321163 L33.0871735,49.6731163 C33.4466224,50.1229531 34.1487041,50.2595857 34.6531939,49.9737082 L40.0239082,46.9614837 C40.532602,46.6777082 40.7974592,46.000851 40.6250918,45.4459122 L38.7605816,39.5181571 C39.6707653,38.5869531 40.4842551,37.5506469 41.2031531,36.4344633 L47.3179898,37.0230347 C47.8876429,37.0734837 48.4804184,36.6656878 48.6464796,36.1023408 L50.3995816,30.1262388 C50.5698469,29.5628918 50.2881735,28.8965449 49.7773776,28.6337898" id="Fill-7"></path>
                                </g>
                            </g>
                        </g>
                    </g>
                </g>
            </g>
        </g>
    </g>
</svg>