<?xml version="1.0" encoding="UTF-8"?>
<svg width="142px" height="93px" viewBox="0 0 142 93" version="1.1" xmlns="http://www.w3.org/2000/svg" xmlns:xlink="http://www.w3.org/1999/xlink">
    <!-- Generator: Sketch 50.2 (55047) - http://www.bohemiancoding.com/sketch -->
    <title>devops</title>
    <desc>Created with Sketch.</desc>
    <defs></defs>
    <g id="Final-Designs" stroke="none" stroke-width="1" fill="none" fill-rule="evenodd">
        <g id="Home-page-final" transform="translate(-1127.000000, -3826.000000)">
            <g id="Group-56" transform="translate(78.000000, 3131.000000)">
                <g id="devops" transform="translate(1049.000000, 695.000000)">
                    <polygon id="Fill-1" fill="#2D94F3" points="41.745663 19 0 93 69.3501686 93 111 19"></polygon>
                    <polygon id="Fill-2" fill="#2E71DF" points="93.0689425 62 61.7088914 62 47.7778339 62 40 76 53.9300627 76 85.3597541 76 99.2908116 76 107 62"></polygon>
                    <path d="M140.2901,15.3058 C139.6581,13.2688 138.7311,11.3608 137.5651,9.6338 C135.2311,6.1818 131.9351,3.4438 128.0441,1.7948 C125.4521,0.6988 122.5931,0.0938 119.6161,0.0938 C119.1331,0.0928 118.6571,0.1108 118.1841,0.1448 C116.1351,0.2918 114.1791,0.7548 112.3581,1.4548 C110.3951,2.2098 108.5891,3.2298 106.9111,4.4138 C106.6721,4.5828 106.4351,4.7548 106.2011,4.9298 C105.0191,5.8138 103.9041,6.7828 102.8321,7.8008 C102.7691,7.8608 102.7011,7.9158 102.6381,7.9768 C101.1311,9.4218 99.7141,10.9718 98.3491,12.5678 C96.5281,14.6978 94.8041,16.9108 93.1111,19.0758 C92.4851,19.8748 91.8671,20.6678 91.2521,21.4458 C90.2251,22.7468 89.2061,24.0058 88.1911,25.1988 C86.9751,26.6258 85.7601,27.9528 84.5491,29.1278 C84.1451,29.5188 83.7421,29.8918 83.3391,30.2468 C82.2651,31.1958 81.1961,32.0048 80.1381,32.6588 C79.7841,32.8778 79.4321,33.0768 79.0821,33.2618 C78.1831,33.7328 77.2891,34.0658 76.3871,34.3098 C76.2341,34.3518 76.0831,34.4128 75.9301,34.4488 C75.1211,34.6318 74.3001,34.7298 73.4301,34.7298 C72.0761,34.7298 70.7831,34.5258 69.5661,34.1458 C68.3501,33.7658 67.2081,33.2138 66.1701,32.5128 C64.0941,31.1128 62.4421,29.1188 61.4581,26.7938 C60.8041,25.2418 60.4401,23.5448 60.4401,21.7398 C60.4401,20.3848 60.6451,19.0928 61.0241,17.8748 C61.4031,16.6578 61.9561,15.5168 62.6571,14.4798 C64.0591,12.4048 66.0521,10.7498 68.3771,9.7688 C69.9291,9.1138 71.6241,8.7498 73.4301,8.7498 C74.2201,8.7498 74.9721,8.8298 75.7081,8.9828 C76.4421,9.1358 77.1681,9.3608 77.8941,9.6598 C79.3411,10.2578 80.8041,11.1608 82.2881,12.3488 C83.2751,13.1378 84.2681,14.0508 85.2641,15.0628 C85.6741,15.4798 86.0861,15.9408 86.4971,16.3888 L90.9391,8.5148 C90.7741,8.3518 90.6211,8.1768 90.4551,8.0168 C88.8081,6.4358 87.0541,4.9728 85.1341,3.7358 C82.9421,2.3188 80.5181,1.1928 77.8521,0.5868 C76.4341,0.2618 74.9501,0.0898 73.4281,0.0898 C71.1981,0.0898 69.0291,0.4298 66.9921,1.0648 C64.9561,1.6968 63.0481,2.6208 61.3211,3.7888 C57.8701,6.1208 55.1301,9.4188 53.4821,13.3098 C52.3861,15.9008 51.7811,18.7598 51.7811,21.7378 C51.7811,23.9688 52.1201,26.1358 52.7561,28.1748 C53.3881,30.2118 54.3151,32.1198 55.4811,33.8468 C57.8151,37.2978 61.1121,40.0388 65.0031,41.6858 C67.5951,42.7828 70.4541,43.3868 73.4301,43.3868 C75.8411,43.3888 78.1441,42.9488 80.2681,42.1828 C80.4091,42.1318 80.5501,42.0788 80.6891,42.0258 C82.9331,41.1618 84.9731,39.9548 86.8481,38.5508 C87.7861,37.8478 88.6851,37.0948 89.5531,36.3068 C89.7811,36.0988 90.0041,35.8878 90.2271,35.6758 C90.2871,35.6178 90.3501,35.5628 90.4101,35.5038 C91.9181,34.0578 93.3341,32.5088 94.7001,30.9118 C96.5191,28.7828 98.2451,26.5668 99.9361,24.4038 C101.6021,22.2738 103.2291,20.1878 104.8541,18.2828 C106.4771,16.3768 108.0971,14.6528 109.7091,13.2328 C110.7811,12.2848 111.8501,11.4748 112.9091,10.8198 C114.1721,10.0378 115.4121,9.4938 116.6671,9.1548 C116.8171,9.1148 116.9671,9.0638 117.1181,9.0298 C117.9251,8.8468 118.7461,8.7488 119.6161,8.7488 C120.9711,8.7488 122.2641,8.9538 123.4801,9.3318 C124.6971,9.7108 125.8391,10.2628 126.8751,10.9648 C128.9511,12.3658 130.6031,14.3588 131.5881,16.6838 C132.2411,18.2368 132.6051,19.9328 132.6051,21.7398 C132.6051,23.0938 132.4001,24.3868 132.0221,25.6038 C131.6431,26.8208 131.0901,27.9618 130.3891,28.9988 C128.9881,31.0758 126.9951,32.7278 124.6701,33.7088 C123.1181,34.3668 121.4231,34.7298 119.6161,34.7298 C118.8261,34.7298 118.0761,34.6478 117.3391,34.4958 C116.6031,34.3438 115.8791,34.1188 115.1531,33.8198 C113.7061,33.2218 112.2421,32.3178 110.7591,31.1308 C109.7711,30.3388 108.7791,29.4258 107.7841,28.4158 C107.3781,28.0028 106.9721,27.5468 106.5641,27.1048 L102.1301,34.9848 C102.2861,35.1398 102.4331,35.3058 102.5911,35.4588 C104.2371,37.0388 105.9901,38.5038 107.9111,39.7418 C110.1031,41.1578 112.5281,42.2838 115.1931,42.8898 C116.6111,43.2118 118.0951,43.3858 119.6161,43.3858 C121.8481,43.3858 124.0171,43.0458 126.0531,42.4118 C128.0891,41.7798 129.9961,40.8528 131.7231,39.6868 C135.1761,37.3538 137.9151,34.0558 139.5611,30.1648 C140.6581,27.5738 141.2651,24.7138 141.2651,21.7378 C141.2651,19.5058 140.9251,17.3378 140.2901,15.3058" id="Fill-3" fill="#2E71DF"></path>
                </g>
            </g>
        </g>
    </g>
</svg>