<?xml version="1.0" encoding="UTF-8"?>
<svg width="474px" height="592px" viewBox="0 0 474 592" version="1.1" xmlns="http://www.w3.org/2000/svg" xmlns:xlink="http://www.w3.org/1999/xlink">
    <!-- Generator: Sketch 51.1 (57501) - http://www.bohemiancoding.com/sketch -->
    <title>Group 2</title>
    <desc>Created with Sketch.</desc>
    <defs>
        <linearGradient x1="50%" y1="3.63113096%" x2="50%" y2="122.169502%" id="linearGradient-1">
            <stop stop-color="#C3FFC6" stop-opacity="0" offset="0%"></stop>
            <stop stop-color="#87F08C" offset="100%"></stop>
        </linearGradient>
        <linearGradient x1="50%" y1="50%" x2="100%" y2="50%" id="linearGradient-2">
            <stop stop-color="#C7FDC4" offset="0%"></stop>
            <stop stop-color="#A3F3A7" offset="100%"></stop>
        </linearGradient>
        <linearGradient x1="77.9016929%" y1="53.316833%" x2="6.00318395%" y2="46.1037609%" id="linearGradient-3">
            <stop stop-color="#C4F7C6" offset="0%"></stop>
            <stop stop-color="#E9F7E9" stop-opacity="0" offset="100%"></stop>
        </linearGradient>
        <polygon id="path-4" points="112.78558 209.01194 212.78558 209.01194 212.78558 207.01194 112.78558 207.01194"></polygon>
        <filter x="-5.0%" y="-150.0%" width="110.0%" height="700.0%" filterUnits="objectBoundingBox" id="filter-5">
            <feOffset dx="0" dy="4" in="SourceAlpha" result="shadowOffsetOuter1"></feOffset>
            <feGaussianBlur stdDeviation="1" in="shadowOffsetOuter1" result="shadowBlurOuter1"></feGaussianBlur>
            <feColorMatrix values="0 0 0 0 0.304305543   0 0 0 0 0.750079719   0 0 0 0 0.330023284  0 0 0 0.4 0" type="matrix" in="shadowBlurOuter1"></feColorMatrix>
        </filter>
        <polygon id="path-6" points="245.454874 428.275307 399.96092 427.007389 399.505178 360.834612 397.269958 360.865529 398.28974 425.327238 245.454874 426.275307"></polygon>
        <filter x="-3.2%" y="-4.4%" width="106.5%" height="117.8%" filterUnits="objectBoundingBox" id="filter-7">
            <feOffset dx="0" dy="4" in="SourceAlpha" result="shadowOffsetOuter1"></feOffset>
            <feGaussianBlur stdDeviation="1" in="shadowOffsetOuter1" result="shadowBlurOuter1"></feGaussianBlur>
            <feColorMatrix values="0 0 0 0 0.304305543   0 0 0 0 0.750079719   0 0 0 0 0.330023284  0 0 0 0.4 0" type="matrix" in="shadowBlurOuter1"></feColorMatrix>
        </filter>
        <radialGradient cx="50%" cy="50%" fx="50%" fy="50%" r="52.5693512%" id="radialGradient-8">
            <stop stop-color="#FFFFFF" offset="0%"></stop>
            <stop stop-color="#FFFFFF" offset="82.3834899%"></stop>
            <stop stop-color="#DFFFD9" offset="100%"></stop>
        </radialGradient>
        <circle id="path-9" cx="217" cy="302" r="78"></circle>
        <filter x="-14.4%" y="-14.4%" width="128.8%" height="128.8%" filterUnits="objectBoundingBox" id="filter-10">
            <feOffset dx="0" dy="0" in="SourceAlpha" result="shadowOffsetOuter1"></feOffset>
            <feGaussianBlur stdDeviation="7.5" in="shadowOffsetOuter1" result="shadowBlurOuter1"></feGaussianBlur>
            <feColorMatrix values="0 0 0 0 0.488960994   0 0 0 0 0.794908588   0 0 0 0 0.499159247  0 0 0 0.5 0" type="matrix" in="shadowBlurOuter1"></feColorMatrix>
        </filter>
        <linearGradient x1="94.9378414%" y1="3.70854084%" x2="24.5042807%" y2="76.1538243%" id="linearGradient-11">
            <stop stop-color="#86FF8D" offset="2.54922327%"></stop>
            <stop stop-color="#35D03C" offset="100%"></stop>
        </linearGradient>
        <linearGradient x1="79.8447244%" y1="69.9585456%" x2="6.32480055%" y2="29.1736222%" id="linearGradient-12">
            <stop stop-color="#9DF5A1" offset="0%"></stop>
            <stop stop-color="#D5EFD5" stop-opacity="0" offset="100%"></stop>
        </linearGradient>
        <rect id="path-13" x="19.645894" y="20.4863524" width="117.353543" height="115.576151"></rect>
        <filter x="-7.7%" y="-7.8%" width="115.3%" height="115.6%" filterUnits="objectBoundingBox" id="filter-14">
            <feOffset dx="0" dy="0" in="SourceAlpha" result="shadowOffsetOuter1"></feOffset>
            <feGaussianBlur stdDeviation="3" in="shadowOffsetOuter1" result="shadowBlurOuter1"></feGaussianBlur>
            <feColorMatrix values="0 0 0 0 0.488960994   0 0 0 0 0.794908588   0 0 0 0 0.499159247  0 0 0 0.5 0" type="matrix" in="shadowBlurOuter1"></feColorMatrix>
        </filter>
        <filter x="-10.6%" y="-10.3%" width="121.2%" height="120.7%" filterUnits="objectBoundingBox" id="filter-15">
            <feOffset dx="0" dy="0" in="SourceAlpha" result="shadowOffsetOuter1"></feOffset>
            <feGaussianBlur stdDeviation="3" in="shadowOffsetOuter1" result="shadowBlurOuter1"></feGaussianBlur>
            <feColorMatrix values="0 0 0 0 0   0 0 0 0 0.776470588   0 0 0 0 0.00784313725  0 0 0 0.5 0" type="matrix" in="shadowBlurOuter1" result="shadowMatrixOuter1"></feColorMatrix>
            <feMerge>
                <feMergeNode in="shadowMatrixOuter1"></feMergeNode>
                <feMergeNode in="SourceGraphic"></feMergeNode>
            </feMerge>
        </filter>
        <polygon id="path-16" points="84.9201373 0.484109863 84.9201373 85.4032859 9.61298377e-05 85.4032859 9.61298377e-05 0.484109863 84.9201373 0.484109863"></polygon>
        <linearGradient x1="98.5025152%" y1="50%" x2="0%" y2="50%" id="linearGradient-18">
            <stop stop-color="#E7FFE7" offset="0.977691474%"></stop>
            <stop stop-color="#8BFF90" offset="97.437229%"></stop>
        </linearGradient>
        <path d="M40.0743184,14.938305 C35.0833232,20.0917092 28.09068,23.2951436 20.3497253,23.2951436 C12.6087652,23.2951436 5.61621247,20.0912985 0.625516854,14.9373138 L0.625516854,0.924961298 L40.0743184,0.924961298 L40.0743184,14.938305 Z" id="path-19"></path>
        <rect id="path-21" x="251.062968" y="269.131185" width="135.389036" height="155.435509" rx="10"></rect>
        <filter x="-6.6%" y="-5.8%" width="113.3%" height="111.6%" filterUnits="objectBoundingBox" id="filter-22">
            <feOffset dx="0" dy="0" in="SourceAlpha" result="shadowOffsetOuter1"></feOffset>
            <feGaussianBlur stdDeviation="3" in="shadowOffsetOuter1" result="shadowBlurOuter1"></feGaussianBlur>
            <feColorMatrix values="0 0 0 0 0.488960994   0 0 0 0 0.794908588   0 0 0 0 0.499159247  0 0 0 0.5 0" type="matrix" in="shadowBlurOuter1"></feColorMatrix>
        </filter>
        <rect id="path-23" x="7.27595761e-12" y="7.27595761e-12" width="108" height="32" rx="16"></rect>
        <filter x="-5.6%" y="-18.8%" width="111.1%" height="137.5%" filterUnits="objectBoundingBox" id="filter-24">
            <feOffset dx="0" dy="0" in="SourceAlpha" result="shadowOffsetOuter1"></feOffset>
            <feGaussianBlur stdDeviation="2" in="shadowOffsetOuter1" result="shadowBlurOuter1"></feGaussianBlur>
            <feColorMatrix values="0 0 0 0 0.490196078   0 0 0 0 0.796078431   0 0 0 0 0.498039216  0 0 0 0.65 0" type="matrix" in="shadowBlurOuter1"></feColorMatrix>
        </filter>
        <rect id="path-25" x="7.27595761e-12" y="7.27595761e-12" width="108" height="32" rx="16"></rect>
        <filter x="-5.6%" y="-18.8%" width="111.1%" height="137.5%" filterUnits="objectBoundingBox" id="filter-26">
            <feOffset dx="0" dy="0" in="SourceAlpha" result="shadowOffsetOuter1"></feOffset>
            <feGaussianBlur stdDeviation="2" in="shadowOffsetOuter1" result="shadowBlurOuter1"></feGaussianBlur>
            <feColorMatrix values="0 0 0 0 0.490196078   0 0 0 0 0.796078431   0 0 0 0 0.498039216  0 0 0 0.65 0" type="matrix" in="shadowBlurOuter1"></feColorMatrix>
        </filter>
        <polygon id="path-27" points="23.4539627 21.0309739 0.492002828 21.0309739 0.492002828 0.258188716 23.4539627 0.258188716"></polygon>
    </defs>
    <g id="11-July" stroke="none" stroke-width="1" fill="none" fill-rule="evenodd">
        <g id="service-page" transform="translate(-671.000000, -4543.000000)">
            <g id="Group-78" transform="translate(-10.000000, 3971.000000)">
                <g id="Group-59" transform="translate(674.000000, 568.000000)">
                    <g id="s2">
                        <g id="Group-2" transform="translate(0.504431, 0.182650)">
                            <g id="Group">
                                <rect id="Rectangle-Copy-5" fill-opacity="0.12" fill="#4DC14D" transform="translate(320.436150, 453.226987) rotate(74.000000) translate(-320.436150, -453.226987) " x="207.841454" y="315.799049" width="225.189393" height="274.855876" rx="16"></rect>
                                <rect id="Rectangle-Copy-5" fill-opacity="0.12" fill="#4DC14D" transform="translate(140.969660, 129.068118) rotate(74.000000) translate(-140.969660, -129.068118) " x="36.9071231" y="26.8817135" width="208.125073" height="204.372809" rx="16"></rect>
                                <rect id="Rectangle-Copy-5" fill-opacity="0.12" fill="#4DC14D" transform="translate(241.941330, 289.795393) rotate(74.000000) translate(-241.941330, -289.795393) " x="110.146786" y="78.9479399" width="263.589088" height="421.694907" rx="16"></rect>
                                <path d="M329.487829,115.595703 L345.554593,115.389615 L348.043248,179.662814 L432.125791,264.530425 L348.046016,265.9314 C339.212472,266.079067 331.931079,259.039116 331.7809,250.205613 L329.487829,115.595703 Z" id="Rectangle" fill="url(#linearGradient-1)" transform="translate(380.806810, 190.661648) scale(-1, -1) rotate(-15.000000) translate(-380.806810, -190.661648) "></path>
                                <g id="Group-5" transform="translate(357.650972, 196.028924) rotate(-48.000000) translate(-357.650972, -196.028924) translate(300.150972, 157.528924)">
                                    <circle id="Oval" fill="#93E494" cx="78.0919183" cy="36.8490231" r="36.8490231"></circle>
                                    <polygon id="Rectangle-10" fill="url(#linearGradient-2)" transform="translate(45.071614, 65.564433) scale(1, -1) rotate(-164.000000) translate(-45.071614, -65.564433) " points="17.4399746 61.9369479 72.7083817 61.8795305 72.7083817 69.1139971 17.4348471 69.2493351"></polygon>
                                    <polygon id="Rectangle-10" fill="url(#linearGradient-2)" transform="translate(41.847325, 29.636635) scale(1, -1) rotate(-164.000000) translate(-41.847325, -29.636635) " points="15.597267 26.0091504 68.1022538 25.951733 68.1022538 33.1861996 15.5923959 33.3215376"></polygon>
                                    <polygon id="Rectangle-10" fill="url(#linearGradient-2)" transform="translate(41.847325, 48.061147) scale(1, -1) rotate(-164.000000) translate(-41.847325, -48.061147) " points="-0.0606622231 44.433662 83.7630886 44.3762445 83.7630886 51.6107111 -0.0684388822 51.7460491"></polygon>
                                </g>
                                <circle id="Oval" fill="url(#linearGradient-3)" transform="translate(118.000000, 403.000000) rotate(83.000000) translate(-118.000000, -403.000000) " cx="118" cy="403" r="37"></circle>
                                <g id="chat" transform="translate(127.000000, 275.500000) rotate(-16.000000) translate(-127.000000, -275.500000) translate(101.000000, 254.000000)" fill="#55FDE9" fill-rule="nonzero">
                                    <path d="M26,0 C11.6404188,0 0,8.27368858 0,18.4805792 C0,23.271978 2.56640864,27.6383993 6.77473966,30.9215737 L6.77473966,43 L17.9149078,36.0450791 C20.4603219,36.6372244 23.1765885,36.9611583 26,36.9611583 C40.3595812,36.9611583 52,28.6859838 52,18.4798362 C52,8.27368858 40.3588573,0 26,0 Z" id="XMLID_8_"></path>
                                </g>
                                <g id="chat-(1)" transform="translate(407.424758, 317.464625) rotate(-16.000000) translate(-407.424758, -317.464625) translate(366.924758, 279.464625)" fill-rule="nonzero">
                                    <path d="M74.9192496,0.875501204 L33.7948632,0.790642635 C30.5148859,0.790642635 27.8564541,3.46611209 27.8564541,6.76589816 L27.8564541,14.1873862 L58.0556132,14.1243484 C61.3343859,14.1243484 63.9928177,16.7998178 63.9928177,20.1008162 L63.9928177,42.4562 L72.4246359,51.7906426 L72.4246359,38.4557246 L74.9192496,38.4557246 C78.1980223,38.4557246 80.8564541,35.7802552 80.8564541,32.4804691 L80.8564541,6.851969 C80.8564541,3.55097066 78.1980223,0.875501204 74.9192496,0.875501204 Z" id="Shape" fill="#63F3E2"></path>
                                    <path d="M65,20.5545587 L65,51.9857381 C65,56.0326455 61.7396591,59.3138816 57.7185227,59.3138816 L32.5,59.4194402 L17.7272727,75.7735849 L17.7272727,59.4194402 L7.28147727,59.4194402 C3.26034091,59.4194402 0,56.1382041 0,52.0912966 L0,20.6601172 C0,16.6132098 3.26034091,13.3319737 7.28147727,13.3319737 L57.7170455,13.2264151 C61.7396591,13.2264151 65,16.5076512 65,20.5545587 Z" id="Shape" fill="#FFFFFF"></path>
                                </g>
                                <g id="chat" transform="translate(73.795203, 252.377338) rotate(-18.000000) translate(-73.795203, -252.377338) translate(60.295203, 239.377338)" fill="#96E3FF" fill-rule="nonzero">
                                    <path d="M13.417492,3.63797881e-12 C6.00690795,3.63797881e-12 7.27595761e-12,5.3953316 7.27595761e-12,12.0514351 C7.27595761e-12,14.5040465 0.818122973,16.7843272 2.21904675,18.6882375 C2.03464225,20.8871781 1.50551141,23.9849959 7.27595761e-12,25.4932348 C7.27595761e-12,25.4932348 4.60047956,24.8466497 7.71609001,22.9613512 C9.44660243,23.6920336 11.3780332,24.1028702 13.417492,24.1028702 C20.828076,24.1028702 26.834984,18.7075386 26.834984,12.0514351 C26.834984,5.3953316 20.828076,3.63797881e-12 13.417492,3.63797881e-12 Z" id="Shape"></path>
                                </g>
                                <g id="Page-1" transform="translate(162.785580, 208.011940) rotate(73.000000) translate(-162.785580, -208.011940) ">
                                    <use fill="black" fill-opacity="1" filter="url(#filter-5)" xlink:href="#path-4"></use>
                                    <use fill="#35D03C" fill-rule="evenodd" xlink:href="#path-4"></use>
                                </g>
                                <g id="Page-1" transform="translate(322.707897, 394.554959) scale(-1, -1) rotate(74.000000) translate(-322.707897, -394.554959) ">
                                    <use fill="black" fill-opacity="1" filter="url(#filter-7)" xlink:href="#path-6"></use>
                                    <use fill="#35D03C" fill-rule="evenodd" xlink:href="#path-6"></use>
                                </g>
                                <g id="Oval-2">
                                    <use fill="black" fill-opacity="1" filter="url(#filter-10)" xlink:href="#path-9"></use>
                                    <use fill="url(#radialGradient-8)" fill-rule="evenodd" xlink:href="#path-9"></use>
                                </g>
                                <g id="Group-4" transform="translate(80.000000, 299.000000)">
                                    <path d="M106,22.6329114 L106,68.3544304 C106,74.2025316 101.223464,78.9873418 95.3854749,78.9873418 L58.5,79.164557 L36.9171322,103 L36.9171322,79.164557 L21.6145251,79.164557 C15.7765363,79.164557 11,74.3797468 11,68.5316456 L11,22.8101266 C11,16.9620253 15.7765363,12.1772152 21.6145251,12.1772152 L95.2970205,12 C101.223464,12 106,16.7848101 106,22.6329114 Z" id="Shape" fill="url(#linearGradient-11)" fill-rule="nonzero" transform="translate(58.500000, 57.500000) rotate(-16.000000) translate(-58.500000, -57.500000) "></path>
                                    <rect id="Rectangle" fill="#FFFE37" transform="translate(30.000000, 41.000000) rotate(74.000000) translate(-30.000000, -41.000000) " x="28" y="33" width="4" height="16"></rect>
                                    <rect id="Rectangle" fill="#FFD4EA" transform="translate(44.000000, 49.000000) rotate(74.000000) translate(-44.000000, -49.000000) " x="42" y="30" width="4" height="38"></rect>
                                    <rect id="Rectangle" fill="#DDFEFF" transform="translate(59.000000, 58.500000) rotate(74.000000) translate(-59.000000, -58.500000) " x="57" y="28" width="4" height="61"></rect>
                                </g>
                                <g id="settings-gears" transform="translate(218.497063, 297.927639) rotate(-149.000000) translate(-218.497063, -297.927639) translate(163.497063, 243.927639)" fill-rule="nonzero">
                                    <path d="M7.13700773,39.2846637 C7.70844415,41.2442254 8.50145797,43.1338028 9.50438721,44.9067396 L6.64720507,48.5109335 C5.71424764,49.6890034 5.81920535,51.3686277 6.86878246,52.430057 L11.7901329,57.3522894 C12.851372,58.4137187 14.5306954,58.5069145 15.7085541,57.5737899 L19.2887783,54.7394238 C21.1313692,55.8009697 23.0905798,56.6290012 25.1314242,57.2122041 L25.6678747,61.819507 C25.8428042,63.3125064 27.1022967,64.4322559 28.5950286,64.4322559 L35.5572235,64.4322559 C37.0499553,64.4322559 38.3094479,63.3123897 38.4843774,61.819507 L38.997504,57.3755009 C41.1899539,56.8039621 43.2891082,55.9524858 45.2599807,54.8444003 L48.7235852,57.5854539 C49.901444,58.5185786 51.5807673,58.4136021 52.6420064,57.3638368 L57.5633569,52.4416044 C58.6245959,51.3801751 58.7178917,49.7005508 57.7849342,48.5224809 L55.0910197,45.104912 C56.2105686,43.1685617 57.0852162,41.1041401 57.6683146,38.9462894 L61.8199751,38.468063 C63.3128236,38.2931021 64.4322559,37.0333839 64.4322559,35.5403845 L64.4322559,28.5769419 C64.4322559,27.0839425 63.312707,25.8242242 61.8199751,25.6492634 L57.7266244,25.171037 C57.1667333,23.0365144 56.3271883,20.9953043 55.2544038,19.0823988 L57.7733889,15.8981109 C58.7063463,14.7200411 58.6013886,13.0404168 57.5518115,11.9789875 L52.642123,7.0684191 C51.5808839,6.00698983 49.9015606,5.91367736 48.7237018,6.846802 L45.6332803,9.29625416 C43.6274219,8.11818431 41.4815031,7.22005185 39.23086,6.61352084 L38.7643812,2.61274897 C38.5894517,1.11974956 37.3299592,0 35.8372273,0 L28.8750325,0 C27.3823006,0 26.1228081,1.11974956 25.9478785,2.61274897 L25.4813998,6.61352084 C23.1723302,7.23171591 20.9682183,8.16484054 18.9157119,9.38956662 L15.7086707,6.846802 C14.530812,5.91367736 12.8514886,6.01865389 11.7902495,7.0684191 L6.86889908,11.9906515 C5.80766001,13.0520808 5.71436426,14.7317052 6.64732169,15.909775 L9.32957431,19.3040159 C8.25667326,21.2402495 7.44033551,23.3047877 6.90388499,25.4509744 L2.61228081,25.9408648 C1.11954892,26.1158257 0,27.3755439 0,28.8685433 L0,35.8319859 C0,37.3249853 1.11954892,38.5847036 2.61228081,38.7596645 L7.13700773,39.2846637 Z M32.3618443,20.4472102 C38.7059548,20.4472102 43.8722066,25.6143878 43.8722066,31.9596353 C43.8722066,38.3048828 38.7059548,43.4720605 32.3618443,43.4720605 C26.0178503,43.4720605 20.851482,38.3048828 20.851482,31.9596353 C20.851482,25.6143878 26.0177337,20.4472102 32.3618443,20.4472102 Z" id="Shape" fill="#93F793"></path>
                                    <path d="M101.699401,41.6301305 L98.0084594,38.5174401 C96.872001,37.5578889 95.1963137,37.6046963 94.1184416,38.6227567 L92.079636,40.5301572 C90.3573139,39.6993263 88.5294191,39.1142341 86.6428208,38.7748806 L86.0689087,35.9664382 C85.7759769,34.5154096 84.4284904,33.509051 82.9518795,33.6260695 L78.1360799,34.035634 C76.6597034,34.1643543 75.4996932,35.3696442 75.4528241,36.8557783 L75.3592031,39.7110281 C73.5077567,40.3780332 71.7618828,41.290777 70.1683336,42.4375577 L67.7312577,40.8227033 C66.4889924,40.0035742 64.8369739,40.2376111 63.8762746,41.3726899 L60.7594797,45.0821743 C59.7985461,46.2172531 59.8454152,47.8906168 60.8647008,48.9671864 L62.9973619,51.237227 C62.2590564,52.8988888 61.7317791,54.6425805 61.4272472,56.4328455 L58.3807559,57.0530433 C56.9278139,57.3455893 55.9201284,58.6913014 56.0373011,60.1658507 L56.4474057,64.9753084 C56.5762957,66.4497406 57.7831749,67.6082232 59.2712687,67.6550305 L62.5638227,67.7602301 C63.1616381,69.3282771 63.9465782,70.8145283 64.8955603,72.2069307 L63.0560654,74.9802676 C62.2358562,76.220663 62.4702017,77.8706229 63.6066601,78.8301741 L67.2976014,81.9428645 C68.4342942,82.9024157 70.1097472,82.8556083 71.1878536,81.8375479 L73.601612,79.5790921 C75.183444,80.3163082 76.8471798,80.8662949 78.5579018,81.1939465 L79.2259035,84.4938664 C79.5188354,85.944895 80.8663219,86.9512535 82.3426984,86.8342351 L87.158498,86.4246706 C88.6348746,86.2959503 89.7948847,85.0907774 89.8417538,83.6045263 L89.9472093,80.3747004 C91.7048004,79.7545027 93.3685361,78.91197 94.903499,77.8706229 L97.5634374,79.6258995 C98.8054684,80.4450285 100.457487,80.2109916 101.418421,79.0759128 L104.535215,75.3898321 C105.495915,74.2547533 105.449046,72.5813897 104.42976,71.50482 L102.285382,69.2347794 C103.070556,67.5731176 103.64482,65.8178411 103.972669,64.0156402 L106.901988,63.4188461 C108.35493,63.1263001 109.362615,61.7805881 109.245442,60.3060387 L108.835338,55.496581 C108.706448,54.0221488 107.499569,52.8636662 106.011475,52.8168589 L103.070439,52.7232441 C102.461024,51.014775 101.640814,49.4000376 100.621529,47.9020846 L102.226678,45.4915048 C103.070439,44.2513434 102.836093,42.5896816 101.699401,41.6301305 Z M83.5495777,69.4335937 C78.347108,69.8783808 73.7537022,66.0049536 73.3202803,60.8094521 C72.8749067,55.6138335 76.7535587,51.0265938 81.955794,50.5936256 C87.1582637,50.1489556 91.7516695,54.0223828 92.1850914,59.2178843 C92.630465,64.4136199 88.751813,69.0007425 83.5495777,69.4335937 Z" id="Shape" fill="#76EF7C"></path>
                                    <path d="M24.1216505,81.4069156 C22.6541296,81.5583667 21.5243714,82.7931595 21.5127244,84.2728372 L21.4777835,87.2203095 C21.4544895,88.6998707 22.5493067,89.9580802 24.0168276,90.1445981 L26.183168,90.4240837 C26.5442247,91.7406601 27.0566923,92.9988696 27.7205708,94.1871786 L26.3229319,95.9113916 C25.3911725,97.0646338 25.4610545,98.7190628 26.4976367,99.7792209 L28.5591542,101.887887 C29.5957364,102.948045 31.2496092,103.064546 32.4259553,102.155839 L34.1612406,100.816079 C35.3841746,101.538384 36.6771072,102.109355 38.0280417,102.505341 L38.2609815,104.742158 C38.4123924,106.210069 39.6469735,107.340128 41.1261414,107.351778 L44.0729466,107.386728 C45.5519981,107.410028 46.8099896,106.31492 46.9963415,104.847009 L47.2642223,102.726693 C48.7318597,102.365424 50.1294986,101.817986 51.4571392,101.095681 L53.0877179,102.412141 C54.2407701,103.344148 55.8947593,103.274247 56.9546355,102.237389 L59.062741,100.175324 C60.1226172,99.1385825 60.2390871,97.4841535 59.3307382,96.3074946 L58.0842772,94.6880159 C58.8529787,93.4065062 59.4470917,92.0434459 59.8547364,90.6104851 L61.7881369,90.4124336 C63.2556578,90.2609825 64.3852995,89.0260731 64.397063,87.5465119 L64.4318875,84.5989232 C64.455298,83.1194785 63.3604808,81.8611525 61.8929599,81.6747511 L60.0060308,81.4300992 C59.6449741,80.0087885 59.1093289,78.6340781 58.4105094,77.3525684 L59.5868556,75.9079575 C60.5186149,74.7545988 60.4487329,73.1002863 59.4121507,72.0401283 L57.3507497,69.9314624 C56.3141675,68.8711879 54.6600618,68.754687 53.4838321,69.6635104 L52.0744297,70.7469685 C50.7467892,69.9431125 49.3257397,69.3256578 47.8350413,68.9062546 L47.648573,67.0771908 C47.4971621,65.6091632 46.2626975,64.4792212 44.7834131,64.4675711 L41.8367243,64.4326209 C40.3575564,64.4093207 39.0996813,65.5044289 38.913213,66.97234 L38.6802732,68.7898703 C37.1429868,69.1858568 35.6638189,69.7917778 34.2894739,70.5838673 L32.8336,69.3955583 C31.6805479,68.4635513 30.0265586,68.5335683 28.9666824,69.5703097 L26.84693,71.6441418 C25.7870538,72.6808832 25.6705839,74.3353122 26.5790492,75.5118545 L27.8252773,77.1196832 C27.1031638,78.4011929 26.5324612,79.7641367 26.1597575,81.197214 L24.1216505,81.4069156 Z M43.1411873,78.0748739 C47.3690452,78.1214743 50.7582032,81.6049671 50.7117317,85.833949 C50.6651437,90.062931 47.1825769,93.4529901 42.954719,93.4065062 C38.7268612,93.3599059 35.3377031,89.8765295 35.3841746,85.6474311 C35.4308791,81.4185657 38.9133295,78.0283901 43.1411873,78.0748739 Z" id="Shape" fill="#46E64F"></path>
                                </g>
                                <circle id="Oval-4" fill="url(#linearGradient-12)" transform="translate(264.000000, 530.000000) scale(-1, -1) rotate(-19.000000) translate(-264.000000, -530.000000) " cx="264" cy="530" r="34"></circle>
                                <g id="Board" transform="translate(245.683341, 306.514061) rotate(10.000000) translate(-245.683341, -306.514061) translate(36.183341, 85.514061)">
                                    <g id="Rectangle" transform="translate(78.322666, 78.274428) rotate(64.000000) translate(-78.322666, -78.274428) ">
                                        <use fill="black" fill-opacity="1" filter="url(#filter-14)" xlink:href="#path-13"></use>
                                        <use fill="#FFFFFF" fill-rule="evenodd" xlink:href="#path-13"></use>
                                    </g>
                                    <g id="profile" filter="url(#filter-15)" transform="translate(78.372133, 77.544487) rotate(154.000000) translate(-78.372133, -77.544487) translate(35.872133, 34.044487)">
                                        <g id="Group-6" transform="translate(0.000000, 0.477573)">
                                            <g id="Group-3">
                                                <mask id="mask-17" fill="white">
                                                    <use xlink:href="#path-16"></use>
                                                </mask>
                                                <g id="Clip-2"></g>
                                                <path d="M84.9202335,42.9436979 C84.9202335,66.3936105 65.9105581,85.4032859 42.4596841,85.4032859 C19.0107328,85.4032859 9.61298377e-05,66.3936105 9.61298377e-05,42.9436979 C9.61298377e-05,19.4937853 19.0107328,0.484109863 42.4596841,0.484109863 C65.9105581,0.484109863 84.9202335,19.4937853 84.9202335,42.9436979" id="Fill-1" fill="url(#linearGradient-18)" mask="url(#mask-17)"></path>
                                            </g>
                                            <path d="M69.9149426,42.9436979 C69.9149426,58.1062572 57.6228202,70.3983795 42.4592996,70.3983795 C27.2967403,70.3983795 15.0055793,58.1062572 15.0055793,42.9436979 C15.0055793,27.7811386 27.2967403,15.4890162 42.4592996,15.4890162 C57.6228202,15.4890162 69.9149426,27.7811386 69.9149426,42.9436979" id="Fill-4" fill="#00E317"></path>
                                        </g>
                                        <g id="Group-12" transform="translate(22.109863, 26.432629)">
                                            <path d="M29.3357503,9.43158677 C29.3357503,14.393809 25.3117553,18.4168427 20.3495331,18.4168427 C15.3873109,18.4168427 11.3652385,14.393809 11.3652385,9.43158677 C11.3652385,4.46840325 15.3873109,0.446330836 20.3495331,0.446330836 C25.3117553,0.446330836 29.3357503,4.46840325 29.3357503,9.43158677" id="Fill-7" fill="#FFFFFF"></path>
                                            <g id="Group-11" transform="translate(0.000000, 21.148564)">
                                                <mask id="mask-20" fill="white">
                                                    <use xlink:href="#path-19"></use>
                                                </mask>
                                                <g id="Clip-10"></g>
                                                <path d="M40.0743184,20.6498427 C40.0743184,31.5442372 31.2428702,40.3747241 20.349437,40.3747241 C9.45600375,40.3747241 0.625516854,31.5442372 0.625516854,20.6498427 C0.625516854,9.75640949 9.45600375,0.924961298 20.349437,0.924961298 C31.2428702,0.924961298 40.0743184,9.75640949 40.0743184,20.6498427" id="Fill-9" fill="#FFFFFF" mask="url(#mask-20)"></path>
                                            </g>
                                        </g>
                                    </g>
                                    <g id="Rectangle" transform="translate(318.757486, 346.848940) rotate(64.000000) translate(-318.757486, -346.848940) ">
                                        <use fill="black" fill-opacity="1" filter="url(#filter-22)" xlink:href="#path-21"></use>
                                        <use fill="#EDFFEE" fill-rule="evenodd" xlink:href="#path-21"></use>
                                    </g>
                                    <g id="Page-1" transform="translate(307.575738, 323.880417) rotate(-26.000000) translate(-307.575738, -323.880417) translate(253.575738, 307.880417)">
                                        <g id="Rectangle-4">
                                            <use fill="black" fill-opacity="1" filter="url(#filter-24)" xlink:href="#path-23"></use>
                                            <use fill="#FFFFFF" fill-rule="evenodd" xlink:href="#path-23"></use>
                                        </g>
                                        <circle id="Oval-7" fill="#00E317" cx="17.1287513" cy="16.0262019" r="9.18562434"></circle>
                                        <polygon id="Fill-2" fill="#9AF99F" points="33.8698618 22.695242 93 22.695242 93 18.695242 33.8698618 18.695242"></polygon>
                                        <polygon id="Fill-3" fill="#5FE965" points="33.5872863 12.9366103 66.9177964 12.9366103 66.9177964 8.9366103 33.5872863 8.9366103"></polygon>
                                    </g>
                                    <g id="Page-1" transform="translate(329.698159, 368.720114) rotate(-26.000000) translate(-329.698159, -368.720114) translate(275.698159, 352.720114)">
                                        <g id="Rectangle-4">
                                            <use fill="black" fill-opacity="1" filter="url(#filter-26)" xlink:href="#path-25"></use>
                                            <use fill="#FFFFFF" fill-rule="evenodd" xlink:href="#path-25"></use>
                                        </g>
                                        <circle id="Oval-7" fill="#00E317" cx="17.1287513" cy="16.0262019" r="9.18562434"></circle>
                                        <polygon id="Fill-2" fill="#9AF99F" points="33.8698618 22.695242 93 22.695242 93 18.695242 33.8698618 18.695242"></polygon>
                                        <polygon id="Fill-3" fill="#5FE965" points="33.5872863 12.9366103 66.9177964 12.9366103 66.9177964 8.9366103 33.5872863 8.9366103"></polygon>
                                    </g>
                                </g>
                                <g id="Page-1" transform="translate(80.014120, 97.186863) rotate(133.000000) translate(-80.014120, -97.186863) translate(52.014120, 72.686863)">
                                    <path d="M8.13663506,11.2213284 C8.13663506,11.2213284 8.60304839,9.20912446 7.91489758,7.96025818 C7.22674678,6.71139191 6.45216546,5.31802258 5.72938161,5.68362595 C5.00659776,6.04922931 5.87720065,7.43506544 5.87720065,7.43506544 C5.87720065,7.43506544 4.34404617,6.93683064 1.27773722,5.94036105 C1.07733044,6.88470231 1.49770008,8.09227831 2.53884614,9.56308903 C4.10056523,11.7693051 5.64909735,12.8703416 5.64909735,12.8703416 L8.13663506,11.2213284 Z" id="Fill-4" fill="#8BF265" transform="translate(4.760155, 9.247317) rotate(23.000000) translate(-4.760155, -9.247317) "></path>
                                    <path d="M51.1850298,6.1949334 C51.1850298,6.1949334 51.6514432,4.18272947 50.9632924,2.9338632 C50.2751416,1.68499693 49.5005602,0.291627603 48.7777764,0.657230964 C48.0549925,1.02283432 48.9255954,2.40867046 48.9255954,2.40867046 C48.9255954,2.40867046 47.392441,1.91043566 44.326132,0.913966066 C44.1257252,1.85830733 44.5460949,3.06588332 45.5872409,4.53669405 C47.14896,6.74291013 48.6974921,7.84394662 48.6974921,7.84394662 L51.1850298,6.1949334 Z" id="Fill-4" fill="#8BF265" transform="translate(47.808550, 4.220922) scale(-1, 1) rotate(-277.000000) translate(-47.808550, -4.220922) "></path>
                                    <path d="M3.78640749,12.7301551 C3.65919092,13.635348 1.43135699,26.4538613 10.8034158,36.6371845 C18.1739039,44.6456769 34.230297,49.6537934 47.5471581,38.2806004 C53.0924773,33.5446506 55.720125,25.1758745 55.9081717,18.5605781 C56.1122228,11.3822605 51.5035862,5.15420366 51.5035862,5.15420366 L48.9126344,8.1148168 C48.9126344,8.1148168 49.6943771,14.2301004 47.2182842,20.1707446 C45.0874763,25.2829812 42.0050592,27.2098414 38.7097496,28.5709881 C33.3521271,30.7839851 29.9831365,30.4741032 24.6284807,30.3508431 C19.6011775,30.2351185 15.7280687,29.1333587 12.4067686,25.2287366 C8.64050445,20.8010011 7.56016877,12.2780102 7.56016877,12.2780102 L3.78640749,12.7301551 Z" id="Fill-7" fill="#5EAE5F"></path>
                                    <path d="M42.3822521,27.7375951 C43.1819088,30.5513673 39.5257891,34.0545646 34.2161959,35.563399 C28.9066027,37.0715961 23.9538285,36.0138829 23.1541718,33.2007479 C22.354515,30.3869757 26.0119091,26.8831412 31.3215023,25.374944 C36.6310955,23.8661097 41.5832326,24.9238229 42.3822521,27.7375951" id="Fill-10" fill="#8BF265"></path>
                                    <path d="M20.3490275,31.5267031 C20.3490275,31.5267031 21.8623221,32.994121 22.0987147,39.4722962 C22.377798,47.1024868 28.4016663,50.5349575 38.596493,47.0298487 C46.1400276,44.4359025 48.5829629,38.1100125 46.0221499,32.3117048 C43.1650497,25.8405385 36.3083916,25.6857046 30.3597102,28.9231993 C24.8124501,31.9427795 20.3490275,31.5267031 20.3490275,31.5267031" id="Fill-12" fill="#064409"></path>
                                </g>
                                <g id="Page-1" transform="translate(406.445068, 431.885828) rotate(-80.000000) translate(-406.445068, -431.885828) translate(382.945068, 404.385828)">
                                    <path d="M3.81935342,20.7440742 C3.81935342,20.7440742 5.69226961,20.2088016 6.40771945,19.0702351 C7.12316928,17.9316685 7.9182901,16.6557475 7.2862849,16.226745 C6.65427971,15.7977425 5.909273,17.1494184 5.909273,17.1494184 C5.909273,17.1494184 5.61926649,15.6570754 5.03925345,12.6723895 C4.1687318,12.9388425 3.3649098,13.8376643 2.62778742,15.3688549 C1.52210386,17.6656408 1.32194776,19.446266 1.32194776,19.446266 L3.81935342,20.7440742 Z" id="Fill-4" fill="#8BF265" transform="translate(4.419154, 16.708232) rotate(-22.000000) translate(-4.419154, -16.708232) "></path>
                                    <path d="M42.1171522,7.86709699 C42.1171522,7.86709699 42.557,5.96950226 41.9080442,4.79176772 C41.2590885,3.61403318 40.528625,2.30002605 39.8470088,2.64480573 C39.1653926,2.9895854 39.9160361,4.49414024 39.9160361,4.49414024 C39.9160361,4.49414024 36.6358702,0.734020912 35.7700405,1.46478452 C34.9042108,2.19554813 35.5416427,4.2949977 36.8381968,6.30330605 C38.1347509,8.3116144 39.7712973,9.42218728 39.7712973,9.42218728 L42.1171522,7.86709699 Z" id="Fill-4" fill="#8BF265" transform="translate(38.817871, 5.396378) scale(-1, 1) rotate(-313.000000) translate(-38.817871, -5.396378) "></path>
                                    <path d="M2.23587752,20.1321695 C1.96377544,20.6391968 -2.73372026,32.95047 6.12620898,43.4439695 C12.6709551,51.1954186 32.1414699,52.6624199 42.1839274,40.1453651 C46.2588924,35.0662736 47.3116224,27.7016759 45.5753307,20.4774999 C44.4693514,15.8758603 41.3163028,8.45625551 41.3163028,8.45625551 L37.7833549,9.28442529 C37.7833549,9.28442529 39.7143542,16.3007729 37.8874276,22.7729189 C37.1012719,25.5579867 36.2079609,28.9023794 32.5941101,32.5491306 C29.067717,36.1076279 22.8445188,37.0921766 17.7948484,36.9759371 C13.0538855,36.8668037 9.78078107,32.5576673 8.71340931,30.4408465 C6.08378179,25.2257468 5.95768673,20.5667926 5.95768673,20.5667926 L2.23587752,20.1321695 Z" id="Fill-7" fill="#5EAE5F"></path>
                                    <path d="M34.8246489,34.7566888 C35.5787595,37.4101968 32.1308816,40.7138624 27.1237071,42.136758 C22.1165327,43.5590527 17.4458538,42.5615836 16.6917432,39.9086765 C15.9376325,37.2551685 19.3867123,33.950902 24.3938867,32.5286073 C29.4010611,31.1057117 34.0711391,32.1031808 34.8246489,34.7566888" id="Fill-10" fill="#8BF265"></path>
                                    <g id="Group-14" transform="translate(15.623009, 32.405125)">
                                        <mask id="mask-28" fill="white">
                                            <use xlink:href="#path-27"></use>
                                        </mask>
                                        <g id="Clip-13"></g>
                                        <path d="M0.658089217,11.6667825 C1.1303848,15.6897074 1.78234499,17.3601676 6.03360614,19.7018163 C12.6721833,23.3582014 20.8778684,19.024619 23.0638879,12.145087 C24.1611039,8.68939753 22.7057605,7.05438953 21.6265711,4.92725674 C20.4704684,2.64990271 19.2296409,0.870682319 17.4191745,0.352719476 C15.3016559,-0.252371687 16.9276506,2.16138323 10.1352469,4.34439832 C3.28335564,6.54664173 2.37842288,3.50496202 0.841960018,6.52741341 C0.369664433,7.45578069 0.446577708,9.86953561 0.658089217,11.6667825" id="Fill-12" fill="#064409" mask="url(#mask-28)"></path>
                                    </g>
                                </g>
                                <g id="Page-1" transform="translate(271.089162, 239.743885) rotate(229.000000) translate(-271.089162, -239.743885) translate(248.089162, 213.243885)">
                                    <path d="M8.24818714,13.2712544 C8.24818714,13.2712544 8.67320813,11.4376256 8.04612798,10.2995913 C7.41904784,9.16155695 6.71320753,7.89184363 6.05456789,8.22500114 C5.39592824,8.55815865 6.18926858,9.82100732 6.18926858,9.82100732 C6.18926858,9.82100732 3.37413407,7.07476876 2.4309052,7.66706024 C1.48767633,8.25935172 1.72405708,9.7497541 3.14717979,11.7601773 C4.5703025,13.7706004 5.98140854,14.7739243 5.98140854,14.7739243 L8.24818714,13.2712544 Z" id="Fill-4" fill="#B1FF82" transform="translate(5.127319, 11.178655) rotate(42.000000) translate(-5.127319, -11.178655) "></path>
                                    <path d="M32.3404872,5.97473361 C32.3404872,5.97473361 32.4509789,5.31153118 31.9557616,3.19761487 C31.6256168,1.78833732 31.1032402,1.01647203 30.3886318,0.88201899 C30.0851591,1.78088435 29.9334227,2.23031703 29.9334227,2.23031703 C29.9334227,2.23031703 25.9014337,0.642410362 25.1809475,1.40628677 C24.4604614,2.17016318 25.4752959,3.69552477 27.1540135,5.3357704 C28.8327311,6.97601602 30.0737086,7.47740345 30.0737086,7.47740345 L32.3404872,5.97473361 Z" id="Fill-4" fill="#B1FF82" transform="translate(28.648477, 4.179711) scale(-1, 1) rotate(-277.000000) translate(-28.648477, -4.179711) "></path>
                                    <path d="M3.1591883,13.9092148 C1.80258885,16.5724654 -0.174474918,30.744016 7.6615902,38.4957403 C14.6965178,45.4549498 32.2684992,47.0329852 42.5038408,35.3083283 C48.3139099,28.6531637 45.3466456,19.6068837 40.9847322,13.6492851 C36.9763365,8.17452873 31.7597379,5.49976398 31.7597379,5.49976398 L29.5719888,8.32407289 C29.5719888,8.32407289 35.2878686,12.608125 36.1576837,18.2764549 C36.4784932,20.3670757 35.9271628,23.9806022 33.3406326,26.6234604 C29.9566217,30.0811663 23.8163433,32.3580596 18.936892,32.2457384 C14.355742,32.1402838 11.2698377,28.4303095 9.77973271,25.9124511 C6.27792019,19.9953725 6.70846792,14.4503348 6.70846792,14.4503348 L3.1591883,13.9092148 Z" id="Fill-7" fill="#5EAE5F"></path>
                                    <path d="M35.3926358,30.1012986 C36.1213261,32.6653597 32.7896725,35.8576621 27.9512847,37.2325934 C23.1128968,38.6069441 18.5996617,37.6430987 17.8709713,35.0796183 C17.142281,32.5155572 20.4750958,29.3226741 25.3134837,27.9483235 C30.1518715,26.5733922 34.664526,27.5372376 35.3926358,30.1012986" id="Fill-10" fill="#8BF265"></path>
                                    <path d="M40.3943265,30.249904 C38.5430884,25.7973929 34.9968407,24.2399473 34.5793098,27.0769455 C34.4230813,28.1352896 34.2309065,29.4659966 33.9537047,30.2823939 C32.3907288,29.3436406 30.5408733,28.8459217 28.5831786,28.9523782 C24.3498022,29.181882 20.9189976,32.1647395 19.9325462,36.0697596 C18.29353,35.8112223 17.4992535,34.3927232 15.7530894,34.4404213 C13.5105889,34.5005623 12.6776008,41.6345343 18.1013552,44.2192167 C18.083382,44.2192167 18.180852,48.5853182 23.558982,50.6114492 C28.7179775,52.5539358 32.5732258,49.0318827 32.5732258,49.0318827 C32.5732258,49.0318827 37.3706837,49.9416024 39.770104,44.6395127 C41.8646714,40.0100349 40.7275217,36.5073376 40.7275217,36.5073376 C40.7275217,36.5073376 41.9469332,33.9841789 40.3943265,30.249904" id="Fill-1" fill="#064409" transform="translate(27.603230, 38.422029) rotate(4.000000) translate(-27.603230, -38.422029) "></path>
                                </g>
                            </g>
                        </g>
                    </g>
                </g>
            </g>
        </g>
    </g>
</svg>