<?xml version="1.0" encoding="UTF-8"?>
<svg width="569px" height="584px" viewBox="0 0 569 584" version="1.1" xmlns="http://www.w3.org/2000/svg" xmlns:xlink="http://www.w3.org/1999/xlink">
    <!-- Generator: Sketch 51.2 (57519) - http://www.bohemiancoding.com/sketch -->
    <title>s1</title>
    <desc>Created with Sketch.</desc>
    <defs>
        <linearGradient x1="79.8447244%" y1="69.9585456%" x2="6.32480055%" y2="29.1736222%" id="linearGradient-1">
            <stop stop-color="#4C81FF" stop-opacity="0.440755208" offset="0%"></stop>
            <stop stop-color="#9FD9FF" stop-opacity="0" offset="100%"></stop>
        </linearGradient>
        <polygon id="path-2" points="11.2433589 11.290253 8.598361 20.8951169 32.4879124 27.4902594 33.5569455 23.6303723 13.4443796 18.166315 15.1527677 12.3020316"></polygon>
        <filter x="-18.0%" y="-27.8%" width="136.1%" height="155.6%" filterUnits="objectBoundingBox" id="filter-3">
            <feOffset dx="0" dy="0" in="SourceAlpha" result="shadowOffsetOuter1"></feOffset>
            <feGaussianBlur stdDeviation="1.5" in="shadowOffsetOuter1" result="shadowBlurOuter1"></feGaussianBlur>
            <feColorMatrix values="0 0 0 0 0   0 0 0 0 0.290196078   0 0 0 0 0.741176471  0 0 0 0.6 0" type="matrix" in="shadowBlurOuter1"></feColorMatrix>
        </filter>
        <path d="M465.745332,331.649649 L484.06136,322.098488 L484.06136,326.168717 C484.06136,326.477069 483.984273,326.758436 483.830097,327.012827 C483.675921,327.267217 483.421534,327.486915 483.066929,327.671926 L474.672083,331.973417 C474.317478,332.158429 473.943607,332.316457 473.550458,332.447507 C473.157309,332.578556 472.737185,332.698041 472.290075,332.805964 C472.737185,332.913887 473.157309,333.033372 473.550458,333.164422 C473.943607,333.295471 474.317478,333.4535 474.672083,333.638511 L483.066929,337.963128 C483.421534,338.14814 483.675921,338.367837 483.830097,338.622228 C483.984273,338.876618 484.06136,339.157986 484.06136,339.466338 L484.06136,343.536566 L465.745332,333.962279 L465.745332,331.649649 Z M494.653204,343.536566 L494.653204,339.466338 C494.653204,339.157986 494.730291,338.876618 494.884467,338.622228 C495.038643,338.367837 495.29303,338.14814 495.647635,337.963128 L504.042481,333.638511 C504.720856,333.299323 505.514851,333.021811 506.424489,332.805964 C505.977379,332.698041 505.557255,332.578556 505.164106,332.447507 C504.770957,332.316457 504.397086,332.158429 504.042481,331.973417 L495.647635,327.671926 C495.29303,327.486915 495.038643,327.267217 494.884467,327.012827 C494.730291,326.758436 494.653204,326.477069 494.653204,326.168717 L494.653204,322.098488 L512.969232,331.649649 L512.969232,333.962279 L494.653204,343.536566 Z" id="path-4"></path>
        <filter x="-15.9%" y="-35.0%" width="131.8%" height="170.0%" filterUnits="objectBoundingBox" id="filter-5">
            <feOffset dx="0" dy="0" in="SourceAlpha" result="shadowOffsetOuter1"></feOffset>
            <feGaussianBlur stdDeviation="2.5" in="shadowOffsetOuter1" result="shadowBlurOuter1"></feGaussianBlur>
            <feColorMatrix values="0 0 0 0 0   0 0 0 0 0.290196078   0 0 0 0 0.741176471  0 0 0 0.6 0" type="matrix" in="shadowBlurOuter1"></feColorMatrix>
        </filter>
        <linearGradient x1="50%" y1="18.9615168%" x2="50%" y2="122.169502%" id="linearGradient-6">
            <stop stop-color="#99CCFF" stop-opacity="0" offset="0%"></stop>
            <stop stop-color="#6E99FF" stop-opacity="0.7872226" offset="100%"></stop>
        </linearGradient>
        <polygon id="path-7" points="114.454874 255.275307 268.96092 254.007389 268.505178 187.834612 266.269958 187.865529 267.28974 252.327238 114.454874 253.275307"></polygon>
        <filter x="-3.2%" y="-4.4%" width="106.5%" height="117.8%" filterUnits="objectBoundingBox" id="filter-8">
            <feOffset dx="0" dy="4" in="SourceAlpha" result="shadowOffsetOuter1"></feOffset>
            <feGaussianBlur stdDeviation="1" in="shadowOffsetOuter1" result="shadowBlurOuter1"></feGaussianBlur>
            <feColorMatrix values="0 0 0 0 0.392156863   0 0 0 0 0.556862745   0 0 0 0 0.8  0 0 0 0.4 0" type="matrix" in="shadowBlurOuter1"></feColorMatrix>
        </filter>
        <path d="M209.007373,125.265636 C209.007373,123.139298 210.07178,122.076129 210.07178,119.949791 C210.07178,99.7495802 194.105676,83.8020454 173.881943,83.8020454 C172.817536,83.8020454 172.817536,83.8020454 171.753129,83.8020454 C153.658211,83.8020454 138.756513,96.5600732 133.434478,113.570777 C130.241257,112.507608 125.98363,112.507608 122.790409,112.507608 C105.759897,111.444439 91.9226065,125.265636 90.8581995,141.213171 C90.8581995,143.339509 90.8581995,146.529015 91.9226065,148.655353 L90.8581995,148.655353 C80.2141298,149.718522 71.698874,158.223874 70.6344671,168.855564 C70.6344671,179.487254 79.1497228,186.929437 88.7293856,189.055775 L95.1158274,189.055775 L210.07178,189.055775 L216.458222,187.992606 C231.35992,185.866268 240.939582,173.10824 239.875175,158.223874 C238.810768,142.27634 226.037885,127.391974 209.007373,125.265636 Z" id="path-9"></path>
        <filter x="-8.9%" y="-14.3%" width="117.7%" height="128.5%" filterUnits="objectBoundingBox" id="filter-10">
            <feOffset dx="0" dy="0" in="SourceAlpha" result="shadowOffsetOuter1"></feOffset>
            <feGaussianBlur stdDeviation="5" in="shadowOffsetOuter1" result="shadowBlurOuter1"></feGaussianBlur>
            <feColorMatrix values="0 0 0 0 0.201381312   0 0 0 0 0.0344196892   0 0 0 0 0.712399022  0 0 0 0.4 0" type="matrix" in="shadowBlurOuter1"></feColorMatrix>
        </filter>
        <polygon id="path-11" points="367.282346 369.493521 470.714294 369.493521 470.714294 367.493521 367.282346 367.493521"></polygon>
        <filter x="-4.8%" y="-150.0%" width="109.7%" height="700.0%" filterUnits="objectBoundingBox" id="filter-12">
            <feOffset dx="0" dy="4" in="SourceAlpha" result="shadowOffsetOuter1"></feOffset>
            <feGaussianBlur stdDeviation="1" in="shadowOffsetOuter1" result="shadowBlurOuter1"></feGaussianBlur>
            <feColorMatrix values="0 0 0 0 0.392156863   0 0 0 0 0.556862745   0 0 0 0 0.8  0 0 0 0.4 0" type="matrix" in="shadowBlurOuter1"></feColorMatrix>
        </filter>
        <linearGradient x1="50%" y1="50%" x2="85.7633251%" y2="13.7671715%" id="linearGradient-13">
            <stop stop-color="#E58DFF" stop-opacity="0.4" offset="0%"></stop>
            <stop stop-color="#2F6BFF" stop-opacity="0.803385417" offset="100%"></stop>
        </linearGradient>
        <rect id="path-14" x="229.672244" y="231.992782" width="201.494264" height="116.275348" rx="58.1376738"></rect>
        <filter x="-11.2%" y="-19.4%" width="122.3%" height="138.7%" filterUnits="objectBoundingBox" id="filter-15">
            <feOffset dx="0" dy="0" in="SourceAlpha" result="shadowOffsetOuter1"></feOffset>
            <feGaussianBlur stdDeviation="7.5" in="shadowOffsetOuter1" result="shadowBlurOuter1"></feGaussianBlur>
            <feColorMatrix values="0 0 0 0 0.0652160241   0 0 0 0 0.2918073   0 0 0 0 0.640757866  0 0 0 0.4 0" type="matrix" in="shadowBlurOuter1"></feColorMatrix>
        </filter>
        <radialGradient cx="50%" cy="50%" fx="50%" fy="50%" r="122.656596%" gradientTransform="translate(0.500000,0.500000),scale(0.483862,1.000000),rotate(90.000000),translate(-0.500000,-0.500000)" id="radialGradient-16">
            <stop stop-color="#00FDFF" offset="0%"></stop>
            <stop stop-color="#B564FF" offset="96.7779082%"></stop>
        </radialGradient>
        <circle id="path-17" cx="59.5" cy="59.5" r="44.5"></circle>
        <filter x="-25.3%" y="-25.3%" width="150.6%" height="150.6%" filterUnits="objectBoundingBox" id="filter-18">
            <feOffset dx="0" dy="0" in="SourceAlpha" result="shadowOffsetOuter1"></feOffset>
            <feGaussianBlur stdDeviation="7.5" in="shadowOffsetOuter1" result="shadowBlurOuter1"></feGaussianBlur>
            <feColorMatrix values="0 0 0 0 0.0614543876   0 0 0 0 0.30820517   0 0 0 0 1  0 0 0 0.398607337 0" type="matrix" in="shadowBlurOuter1"></feColorMatrix>
        </filter>
        <polygon id="path-19" points="23.4539627 21.0309739 0.492002828 21.0309739 0.492002828 0.258188716 23.4539627 0.258188716"></polygon>
    </defs>
    <g id="SB-WEB-DESIGN" stroke="none" stroke-width="1" fill="none" fill-rule="evenodd">
        <g id="Service-page" transform="translate(-588.000000, -5676.000000)">
            <g id="s1" transform="translate(583.658190, 5672.186731)">
                <g id="Group">
                    <rect id="Rectangle-Copy-5" fill-opacity="0.1" fill="#2C7FFF" transform="translate(452.666395, 471.812523) rotate(74.000000) translate(-452.666395, -471.812523) " x="357.88719" y="369.656979" width="189.558409" height="204.311088" rx="16"></rect>
                    <rect id="Rectangle-Copy-5" fill-opacity="0.1" fill="#2C7FFF" transform="translate(153.045114, 129.892082) rotate(74.000000) translate(-153.045114, -129.892082) " x="56.1142661" y="-0.792413351" width="193.861696" height="261.368992" rx="16"></rect>
                    <rect id="Rectangle-Copy-5" fill-opacity="0.1" fill="#2C7FFF" transform="translate(327.798608, 290.505882) rotate(74.000000) translate(-327.798608, -290.505882) " x="167.017814" y="84.7736489" width="321.561589" height="411.464466" rx="16"></rect>
                    <circle id="Oval-4" fill="url(#linearGradient-1)" opacity="0.800000012" transform="translate(490.345031, 335.345031) scale(-1, -1) rotate(51.000000) translate(-490.345031, -335.345031) " cx="490.345031" cy="335.345031" r="41.4834178"></circle>
                    <circle id="Oval" fill="#97A8F4" fill-rule="nonzero" cx="189" cy="416" r="3"></circle>
                    <circle id="Oval" fill="#DEB7FF" fill-rule="nonzero" cx="229" cy="398" r="3"></circle>
                    <circle id="Oval" fill="#92EB7C" fill-rule="nonzero" cx="196" cy="462" r="3"></circle>
                    <circle id="Oval" fill="#9FD9FF" fill-rule="nonzero" cx="242" cy="445" r="3"></circle>
                    <circle id="Oval" fill="#97A8F4" fill-rule="nonzero" cx="420" cy="130" r="3"></circle>
                    <circle id="Oval" fill="#DEB7FF" fill-rule="nonzero" cx="478" cy="146" r="3"></circle>
                    <circle id="Oval" fill="#92EB7C" fill-rule="nonzero" cx="416" cy="181" r="3"></circle>
                    <circle id="Oval" fill="#9FD9FF" fill-rule="nonzero" cx="461" cy="194" r="3"></circle>
                    <g id="Group-7" transform="translate(445.152840, 159.152840) scale(-1, 1) rotate(34.000000) translate(-445.152840, -159.152840) translate(424.152840, 138.152840)">
                        <circle id="Oval" stroke="#FFFFFF" stroke-width="3" fill="#B3CEF6" cx="20.8529705" cy="20.9041367" r="21.9519973"></circle>
                        <g id="Path-4" transform="translate(21.077653, 19.390256) scale(-1, 1) rotate(326.000000) translate(-21.077653, -19.390256) ">
                            <use fill="black" fill-opacity="1" filter="url(#filter-3)" xlink:href="#path-2"></use>
                            <use fill="#FFFFFF" fill-rule="evenodd" xlink:href="#path-2"></use>
                        </g>
                    </g>
                    <g id="&lt;&gt;" transform="translate(489.357282, 332.817527) rotate(-13.000000) translate(-489.357282, -332.817527) ">
                        <use fill="black" fill-opacity="1" filter="url(#filter-5)" xlink:href="#path-4"></use>
                        <use fill="#FFFFFF" fill-rule="evenodd" xlink:href="#path-4"></use>
                    </g>
                    <polygon id="+" fill="#559BFF" transform="translate(189.631446, 384.789035) rotate(-16.000000) translate(-189.631446, -384.789035) " points="191.200748 376.82364 191.200748 383.322768 197.366994 383.322768 197.366994 386.223599 191.200748 386.223599 191.200748 392.75443 188.030441 392.75443 188.030441 386.223599 181.895898 386.223599 181.895898 383.322768 188.030441 383.322768 188.030441 376.82364"></polygon>
                    <polygon id="+-copy" fill="#559BFF" transform="translate(265.627363, 425.716959) rotate(29.000000) translate(-265.627363, -425.716959) " points="267.196664 417.751564 267.196664 424.250693 273.36291 424.250693 273.36291 427.151523 267.196664 427.151523 267.196664 433.682354 264.026358 433.682354 264.026358 427.151523 257.891815 427.151523 257.891815 424.250693 264.026358 424.250693 264.026358 417.751564"></polygon>
                    <g id="share" transform="translate(208.860422, 432.921082) rotate(-15.000000) translate(-208.860422, -432.921082) translate(197.860422, 420.421082)" fill="#559BFF" fill-rule="nonzero">
                        <path d="M18.2107154,17.5895879 C17.2848495,17.5895879 16.437326,17.9154886 15.7792489,18.4544783 L7.53227582,13.7797524 C7.55969569,13.599741 7.57892522,13.4162477 7.57892522,13.228228 C7.57892522,12.9211292 7.53619294,12.6241278 7.46426028,12.3382683 L15.7244092,6.75443239 C16.3354807,7.16737928 17.0761735,7.41041211 17.8752671,7.41041211 C19.9680803,7.41041211 21.6649077,5.75166084 21.6649077,3.70503196 C21.6649077,1.65875127 19.9680803,0 17.8752671,0 C15.7824539,0 14.0859825,1.65875127 14.0859825,3.70503196 C14.0859825,4.01213075 14.1287148,4.30982855 14.2006475,4.59499171 L5.94014244,10.179524 C5.3290709,9.76657707 4.58837812,9.52319606 3.78928456,9.52319606 C1.69647135,9.52319606 0,11.1819473 0,13.228228 C0,15.2748569 1.69647135,16.9336082 3.78928456,16.9336082 C4.71515053,16.9336082 5.562674,16.6080556 6.22075105,16.0687177 L14.4677242,20.7430955 C14.4403043,20.9234551 14.4210748,21.1066002 14.4210748,21.2946199 C14.4210748,23.3412487 16.1175461,25 18.2103593,25 C20.3031725,25 22,23.3409005 22,21.2942717 C22,19.2483392 20.3035287,17.5895879 18.2107154,17.5895879 Z" id="XMLID_8_"></path>
                    </g>
                    <path d="M186.28357,9.08620205 L199.549865,8.91989142 L201.629121,62.6197459 L271.732027,133.141803 L204.457203,134.405171 C195.622205,134.571085 188.325523,127.543404 188.159609,118.708406 C188.159442,118.699526 188.159283,118.690647 188.159131,118.681767 L186.28357,9.08620205 Z" id="Rectangle" fill="url(#linearGradient-6)" transform="translate(229.007798, 71.663970) scale(-1, -1) rotate(-15.000000) translate(-229.007798, -71.663970) "></path>
                    <g id="Page-1" transform="translate(191.707897, 221.554959) rotate(74.000000) translate(-191.707897, -221.554959) ">
                        <use fill="black" fill-opacity="1" filter="url(#filter-8)" xlink:href="#path-7"></use>
                        <use fill="#00BCFF" fill-rule="evenodd" xlink:href="#path-7"></use>
                    </g>
                    <polyline id="Path-12" stroke="#2C7FFF" stroke-width="2" points="203 241.050018 214.173045 246.997012 220.189916 236"></polyline>
                    <path d="M193,180 L213.901797,246.16132" id="Path-10" stroke="#2C7FFF" stroke-width="2" stroke-dasharray="10,5"></path>
                    <g id="Path_4681" fill-rule="nonzero" transform="translate(155.295076, 136.428910) rotate(-15.000000) translate(-155.295076, -136.428910) ">
                        <use fill="black" fill-opacity="1" filter="url(#filter-10)" xlink:href="#path-9"></use>
                        <use fill="#FFFFFF" xlink:href="#path-9"></use>
                    </g>
                    <rect id="Rectangle" fill="#A2FFAE" transform="translate(147.245806, 139.282452) rotate(74.000000) translate(-147.245806, -139.282452) " x="145.245806" y="116.713644" width="4" height="45.1376164"></rect>
                    <rect id="Rectangle" fill="#FFB7D3" transform="translate(158.015641, 150.405254) rotate(74.000000) translate(-158.015641, -150.405254) " x="156.015641" y="120.79379" width="4" height="59.2229287"></rect>
                    <rect id="Rectangle" fill="#92DAFF" transform="translate(170.387696, 160.344265) rotate(74.000000) translate(-170.387696, -160.344265) " x="168.387696" y="122.023357" width="4" height="76.6418171"></rect>
                    <g id="Page-1" transform="translate(418.998320, 368.493521) rotate(73.000000) translate(-418.998320, -368.493521) ">
                        <use fill="black" fill-opacity="1" filter="url(#filter-12)" xlink:href="#path-11"></use>
                        <use fill="#00BCFF" fill-rule="evenodd" xlink:href="#path-11"></use>
                    </g>
                    <polygon id="Path-2" fill="url(#linearGradient-13)" transform="translate(240.404799, 385.162214) rotate(-16.000000) translate(-240.404799, -385.162214) " points="180.272594 328.10088 300.537004 328.10088 300.537004 442.223548"></polygon>
                    <polygon id="Path-2" fill="url(#linearGradient-13)" transform="translate(416.404799, 197.162214) scale(-1, -1) rotate(-16.000000) translate(-416.404799, -197.162214) " points="356.272594 140.10088 476.537004 140.10088 476.537004 254.223548"></polygon>
                    <g id="Rectangle-9" transform="translate(330.419376, 290.130456) rotate(-16.000000) translate(-330.419376, -290.130456) ">
                        <use fill="black" fill-opacity="1" filter="url(#filter-15)" xlink:href="#path-14"></use>
                        <use fill="#F2FCFF" fill-rule="evenodd" xlink:href="#path-14"></use>
                    </g>
                    <path d="M398.10062,276.280275 C395.460985,270.043144 391.066743,264.755046 385.533661,261.016298 C382.766017,259.144717 379.707042,257.661578 376.442811,256.648541 C373.176373,255.63109 369.700265,255.085947 366.124839,255.085947 C363.683839,255.085947 361.306843,255.361829 359.031372,255.882694 C354.758518,256.853797 350.871898,258.659166 347.35827,260.930223 C344.279431,262.914364 341.467646,265.260461 338.828011,267.794157 C336.194997,270.334475 333.725305,273.07122 331.35493,275.883006 C333.345692,278.319592 335.274656,280.782663 337.155065,283.18835 L337.305144,283.382571 C338.247556,284.587622 339.196589,285.805915 340.156657,287.017587 C340.355291,286.772604 340.556133,286.527621 340.754768,286.287052 C342.895609,283.684937 345.025415,281.248351 347.150807,279.089853 C348.746506,277.467669 350.337791,276.004393 351.920248,274.739752 C354.299451,272.835066 356.645548,271.387239 358.96516,270.427171 C360.128277,269.948241 361.291394,269.588491 362.46996,269.343508 C363.650733,269.098525 364.855784,268.970516 366.122632,268.970516 C369.016078,268.970516 371.735167,269.553178 374.222516,270.603735 C377.950228,272.177364 381.14604,274.828034 383.39282,278.15627 C384.51621,279.818181 385.403445,281.647827 386.010385,283.598862 C386.617324,285.552104 386.946175,287.622319 386.946175,289.794059 C386.946175,292.689712 386.363513,295.408801 385.315163,297.898357 C383.73712,301.623862 381.088657,304.821881 377.760421,307.066454 C376.096304,308.189844 374.266657,309.074872 372.315622,309.684019 C370.364588,310.293165 368.292165,310.619809 366.122632,310.619809 C364.727775,310.619809 363.410164,310.463108 362.114624,310.16957 C360.417401,309.781129 358.746662,309.149912 357.060474,308.267091 C356.499882,307.971346 355.934877,307.651323 355.367664,307.300402 C353.670441,306.252051 351.957768,304.954304 350.236267,303.433645 C349.5896,302.864226 348.942934,302.266114 348.296267,301.639311 C346.354061,299.756695 344.40744,297.629096 342.456406,295.340383 C340.829808,293.429075 339.196589,291.409622 337.550127,289.323957 C336.563575,288.076972 335.572608,286.80571 334.568399,285.523412 C331.855931,282.053925 329.090494,278.504984 326.17277,275.090674 C323.983374,272.532699 321.712317,270.047558 319.295594,267.730153 C317.483604,265.990995 315.589952,264.346741 313.583741,262.845945 C313.208542,262.565649 312.828929,262.289768 312.444902,262.0183 C309.754505,260.120235 306.858852,258.484809 303.711594,257.275344 C300.793871,256.151954 297.657649,255.410384 294.373554,255.17423 C293.614328,255.119053 292.850688,255.090362 292.076012,255.092569 C287.304364,255.092569 282.720316,256.061465 278.564435,257.820486 C272.327304,260.462328 267.041413,264.852156 263.300459,270.387444 C261.431085,273.155088 259.945738,276.214063 258.932701,279.480502 C257.91525,282.738111 257.370108,286.21422 257.370108,289.791852 C257.370108,294.5635 258.341211,299.147549 260.100232,303.303429 C262.739867,309.54056 267.131902,314.826451 272.66719,318.567406 C275.434835,320.43678 278.49381,321.922126 281.758041,322.93737 C285.022272,323.952615 288.49838,324.497757 292.076012,324.497757 C294.514806,324.497757 296.894009,324.219668 299.167273,323.703218 C303.440127,322.729907 307.326747,320.924538 310.842582,318.655688 C313.921421,316.671548 316.730999,314.323243 319.370634,311.789547 C322.003648,309.251436 324.47334,306.514691 326.843714,303.700698 C324.844125,301.253077 322.906332,298.781178 321.017095,296.364455 L320.891293,296.20334 C319.951089,294.998289 318.999849,293.779996 318.041988,292.568324 C317.841146,292.8111 317.642511,293.05829 317.443877,293.301066 C315.300828,295.900974 313.171023,298.33756 311.045631,300.498265 C309.449932,302.118242 307.858647,303.581518 306.27619,304.850573 C303.899194,306.753052 301.55089,308.203086 299.231277,309.160947 C298.068161,309.642085 296.907251,310.001834 295.726478,310.246817 C294.545704,310.489593 293.342861,310.619809 292.076012,310.619809 C289.180359,310.619809 286.46127,310.037147 283.973922,308.984383 C280.24621,307.410754 277.050397,304.762291 274.805825,301.434055 C273.682435,299.769938 272.795199,297.940291 272.186053,295.989256 C271.58132,294.038222 271.25247,291.965799 271.25247,289.794059 C271.25247,286.898406 271.835132,284.179317 272.883482,281.689761 C274.461524,277.962049 277.109988,274.766237 280.438223,272.521664 C282.100134,271.396067 283.929781,270.511039 285.880815,269.9041 C287.83185,269.29716 289.904272,268.968309 292.076012,268.968309 C293.47087,268.968309 294.78848,269.12501 296.081813,269.418548 C298.344042,269.934998 300.56213,270.886238 302.828773,272.287717 C304.528204,273.338274 306.240877,274.636021 307.960171,276.15668 C310.54463,278.432152 313.140124,281.197589 315.742239,284.25215 C318.346561,287.306711 320.957505,290.650396 323.625831,294.064706 C326.338299,297.534193 329.103736,301.085341 332.02146,304.499652 C334.210856,307.059833 336.481914,309.542767 338.898637,311.86238 C339.351082,312.297169 339.807942,312.725337 340.27363,313.149091 C341.666281,314.411526 343.105279,315.618783 344.610489,316.746587 C347.616495,318.997781 350.887347,320.933366 354.482636,322.317188 C354.707755,322.403264 354.932875,322.487132 355.160201,322.568792 C358.565684,323.795914 362.255876,324.502171 366.122632,324.499964 C370.892073,324.499964 375.476122,323.531067 379.632002,321.772046 C385.869133,319.132411 391.155025,314.738169 394.895979,309.205088 C396.765353,306.437444 398.252906,303.378469 399.265943,300.112031 C400.285602,296.843386 400.828537,293.369485 400.828537,289.791852 C400.828537,285.017997 399.859641,280.433948 398.10062,276.280275 Z" id="Shape" fill="url(#radialGradient-16)" fill-rule="nonzero" transform="translate(329.099322, 289.792958) rotate(-16.000000) translate(-329.099322, -289.792958) "></path>
                    <g id="Back" transform="translate(388.000000, 397.000000)">
                        <circle id="Oval" fill-opacity="0.3" fill="#0AB7FF" cx="59" cy="59" r="59"></circle>
                        <g id="Oval">
                            <use fill="black" fill-opacity="1" filter="url(#filter-18)" xlink:href="#path-17"></use>
                            <use fill="#FFFFFF" fill-rule="evenodd" xlink:href="#path-17"></use>
                        </g>
                    </g>
                    <g id="lock" transform="translate(447.500000, 452.500000) rotate(-16.000000) translate(-447.500000, -452.500000) translate(429.000000, 427.000000)" fill-rule="nonzero">
                        <path d="M8.23972733,21 L8.23972733,14.3352975 C8.23972733,8.76042525 12.8186879,4.19156914 18.5,4.19156914 C24.1813121,4.19156914 28.7602727,8.71851821 28.7602727,14.3352975 L28.7602727,21 L33,21 L33,14.3352975 C33,6.45504368 26.5131809,0 18.5,0 C10.5292076,0 4,6.41313664 4,14.3352975 L4,21 L8.23972733,21 Z" id="Shape" fill="#6BDFFF"></path>
                        <rect id="Rectangle-path" fill="#7998FF" x="0" y="21" width="37" height="30"></rect>
                        <path d="M22,37.9851113 C22,36.3494025 20.6438672,35 19,35 C17.3561328,35 16,36.3494025 16,37.9851113 C16,39.2936301 16.821873,40.3568468 17.9726891,40.8066879 L17.9726891,44.9776669 C17.9726891,45.550159 18.4247738,46 19.0001212,46 C19.5754686,46 20.0275533,45.550159 20.0275533,44.9776669 L20.0275533,40.7658042 C21.178127,40.3568468 22,39.2527464 22,37.9851113 Z" id="Shape" fill="#FFFFFF"></path>
                    </g>
                    <g id="Page-1" transform="translate(315.702880, 222.007055) rotate(168.000000) translate(-315.702880, -222.007055) translate(289.202880, 199.007055)">
                        <path d="M7.61985871,10.5086361 C7.61985871,10.5086361 8.05664905,8.62423184 7.41220429,7.45468393 C6.76775952,6.28513602 6.04237363,4.98026277 5.36549544,5.32264583 C4.68861725,5.66502888 5.50392616,6.96284739 5.50392616,6.96284739 C5.50392616,6.96284739 4.06814584,6.49625662 1.1965852,5.56307509 C1.00890671,6.44743908 1.40257771,7.57831915 2.3775982,8.95571531 C3.84012892,11.0218095 5.29031022,12.0529167 5.29031022,12.0529167 L7.61985871,10.5086361 Z" id="Fill-4" fill="#FFAC2C" transform="translate(4.457827, 8.659999) rotate(23.000000) translate(-4.457827, -8.659999) "></path>
                        <path d="M47.9341512,5.80147897 C47.9341512,5.80147897 48.3709416,3.91707473 47.7264968,2.74752682 C47.082052,1.57797891 46.3566661,0.273105665 45.6797879,0.615488718 C45.0029098,0.957871771 45.8182187,2.25569028 45.8182187,2.25569028 C45.8182187,2.25569028 44.3824383,1.78909951 41.5108777,0.855917985 C41.3231992,1.74028197 41.7168702,2.87116204 42.6918907,4.2485582 C44.1544214,6.31465244 45.6046027,7.34575958 45.6046027,7.34575958 L47.9341512,5.80147897 Z" id="Fill-4" fill="#FFAC2C" transform="translate(44.772119, 3.952842) scale(-1, 1) rotate(-277.000000) translate(-44.772119, -3.952842) "></path>
                        <path d="M3.54592407,11.9216337 C3.42678731,12.7693358 1.34044822,24.7737159 10.1172661,34.3102729 C17.0196375,41.8101276 32.0562523,46.5001671 44.527329,35.8493117 C49.7204523,31.4141529 52.1812121,23.576897 52.3573155,17.3817532 C52.5484069,10.659347 48.2324754,4.82684837 48.2324754,4.82684837 L45.8060808,7.59942618 C45.8060808,7.59942618 46.5381732,13.3263141 44.2193427,18.8896544 C42.2238672,23.6772011 39.3372215,25.481682 36.2512046,26.7563791 C31.233857,28.8288236 28.0788387,28.5386231 23.0642694,28.4231915 C18.3562617,28.3148167 14.729143,27.2830323 11.6187863,23.6264017 C8.09172619,19.4798818 7.08000511,11.4982056 7.08000511,11.4982056 L3.54592407,11.9216337 Z" id="Fill-7" fill="#5598FF"></path>
                        <path d="M39.6904581,25.9759168 C40.4393268,28.6109799 37.0154156,31.8916811 32.0430469,33.3046859 C27.0706781,34.7170941 22.4324659,33.7265586 21.6835972,31.0920922 C20.9347285,28.4570292 24.3598331,25.1757313 29.3322019,23.7633231 C34.3045706,22.3503183 38.9421861,23.3408538 39.6904581,25.9759168" id="Fill-10" fill="#FFAC2C"></path>
                        <path d="M19.0566141,29.5243699 C19.0566141,29.5243699 20.4737959,30.8985887 20.6951746,36.9653201 C20.9565328,44.1108999 26.5978113,47.3253665 36.1451412,44.0428751 C43.2095686,41.6136764 45.4973475,35.6895582 43.0991776,30.2595143 C40.4235384,24.1993467 34.0023623,24.0543466 28.4314954,27.0862205 C23.2365545,29.9140203 19.0566141,29.5243699 19.0566141,29.5243699" id="Fill-12" fill="#0D264C"></path>
                    </g>
                    <g id="Page-1" transform="translate(110.569241, 108.160543) scale(-1, 1) rotate(241.000000) translate(-110.569241, -108.160543) translate(87.069241, 80.660543)">
                        <path d="M3.81935342,20.7440742 C3.81935342,20.7440742 5.69226961,20.2088016 6.40771945,19.0702351 C7.12316928,17.9316685 7.9182901,16.6557475 7.2862849,16.226745 C6.65427971,15.7977425 5.909273,17.1494184 5.909273,17.1494184 C5.909273,17.1494184 5.61926649,15.6570754 5.03925345,12.6723895 C4.1687318,12.9388425 3.3649098,13.8376643 2.62778742,15.3688549 C1.52210386,17.6656408 1.32194776,19.446266 1.32194776,19.446266 L3.81935342,20.7440742 Z" id="Fill-4" fill="#FFAC2C" transform="translate(4.419154, 16.708232) rotate(-22.000000) translate(-4.419154, -16.708232) "></path>
                        <path d="M42.1171522,7.86709699 C42.1171522,7.86709699 42.557,5.96950226 41.9080442,4.79176772 C41.2590885,3.61403318 40.528625,2.30002605 39.8470088,2.64480573 C39.1653926,2.9895854 39.9160361,4.49414024 39.9160361,4.49414024 C39.9160361,4.49414024 36.6358702,0.734020912 35.7700405,1.46478452 C34.9042108,2.19554813 35.5416427,4.2949977 36.8381968,6.30330605 C38.1347509,8.3116144 39.7712973,9.42218728 39.7712973,9.42218728 L42.1171522,7.86709699 Z" id="Fill-4" fill="#FFAC2C" transform="translate(38.817871, 5.396378) scale(-1, 1) rotate(-313.000000) translate(-38.817871, -5.396378) "></path>
                        <path d="M2.23587752,20.1321695 C1.96377544,20.6391968 -2.73372026,32.95047 6.12620898,43.4439695 C12.6709551,51.1954186 32.1414699,52.6624199 42.1839274,40.1453651 C46.2588924,35.0662736 47.3116224,27.7016759 45.5753307,20.4774999 C44.4693514,15.8758603 41.3163028,8.45625551 41.3163028,8.45625551 L37.7833549,9.28442529 C37.7833549,9.28442529 39.7143542,16.3007729 37.8874276,22.7729189 C37.1012719,25.5579867 36.2079609,28.9023794 32.5941101,32.5491306 C29.067717,36.1076279 22.8445188,37.0921766 17.7948484,36.9759371 C13.0538855,36.8668037 9.78078107,32.5576673 8.71340931,30.4408465 C6.08378179,25.2257468 5.95768673,20.5667926 5.95768673,20.5667926 L2.23587752,20.1321695 Z" id="Fill-7" fill="#5598FF"></path>
                        <path d="M34.8246489,34.7566888 C35.5787595,37.4101968 32.1308816,40.7138624 27.1237071,42.136758 C22.1165327,43.5590527 17.4458538,42.5615836 16.6917432,39.9086765 C15.9376325,37.2551685 19.3867123,33.950902 24.3938867,32.5286073 C29.4010611,31.1057117 34.0711391,32.1031808 34.8246489,34.7566888" id="Fill-10" fill="#FFAC2C"></path>
                        <g id="Group-14" transform="translate(15.623009, 32.405125)">
                            <mask id="mask-20" fill="white">
                                <use xlink:href="#path-19"></use>
                            </mask>
                            <g id="Clip-13"></g>
                            <path d="M0.658089217,11.6667825 C1.1303848,15.6897074 1.78234499,17.3601676 6.03360614,19.7018163 C12.6721833,23.3582014 20.8778684,19.024619 23.0638879,12.145087 C24.1611039,8.68939753 22.7057605,7.05438953 21.6265711,4.92725674 C20.4704684,2.64990271 19.2296409,0.870682319 17.4191745,0.352719476 C15.3016559,-0.252371687 16.9276506,2.16138323 10.1352469,4.34439832 C3.28335564,6.54664173 2.37842288,3.50496202 0.841960018,6.52741341 C0.369664433,7.45578069 0.446577708,9.86953561 0.658089217,11.6667825" id="Fill-12" fill="#0D264C" mask="url(#mask-20)"></path>
                        </g>
                    </g>
                    <g id="Page-1" transform="translate(475.074999, 506.549872) rotate(-12.000000) translate(-475.074999, -506.549872) translate(452.074999, 480.049872)">
                        <path d="M8.24818714,13.2712544 C8.24818714,13.2712544 8.67320813,11.4376256 8.04612798,10.2995913 C7.41904784,9.16155695 6.71320753,7.89184363 6.05456789,8.22500114 C5.39592824,8.55815865 6.18926858,9.82100732 6.18926858,9.82100732 C6.18926858,9.82100732 3.37413407,7.07476876 2.4309052,7.66706024 C1.48767633,8.25935172 1.72405708,9.7497541 3.14717979,11.7601773 C4.5703025,13.7706004 5.98140854,14.7739243 5.98140854,14.7739243 L8.24818714,13.2712544 Z" id="Fill-4" fill="#FFAC2C" transform="translate(5.127319, 11.178655) rotate(42.000000) translate(-5.127319, -11.178655) "></path>
                        <path d="M32.3404872,5.97473361 C32.3404872,5.97473361 32.4509789,5.31153118 31.9557616,3.19761487 C31.6256168,1.78833732 31.1032402,1.01647203 30.3886318,0.88201899 C30.0851591,1.78088435 29.9334227,2.23031703 29.9334227,2.23031703 C29.9334227,2.23031703 25.9014337,0.642410362 25.1809475,1.40628677 C24.4604614,2.17016318 25.4752959,3.69552477 27.1540135,5.3357704 C28.8327311,6.97601602 30.0737086,7.47740345 30.0737086,7.47740345 L32.3404872,5.97473361 Z" id="Fill-4" fill="#FFAC2C" transform="translate(28.648477, 4.179711) scale(-1, 1) rotate(-277.000000) translate(-28.648477, -4.179711) "></path>
                        <path d="M3.1591883,13.9092148 C1.80258885,16.5724654 -0.174474918,30.744016 7.6615902,38.4957403 C14.6965178,45.4549498 32.2684992,47.0329852 42.5038408,35.3083283 C48.3139099,28.6531637 45.3466456,19.6068837 40.9847322,13.6492851 C36.9763365,8.17452873 31.7597379,5.49976398 31.7597379,5.49976398 L29.5719888,8.32407289 C29.5719888,8.32407289 35.2878686,12.608125 36.1576837,18.2764549 C36.4784932,20.3670757 35.9271628,23.9806022 33.3406326,26.6234604 C29.9566217,30.0811663 23.8163433,32.3580596 18.936892,32.2457384 C14.355742,32.1402838 11.2698377,28.4303095 9.77973271,25.9124511 C6.27792019,19.9953725 6.70846792,14.4503348 6.70846792,14.4503348 L3.1591883,13.9092148 Z" id="Fill-7" fill="#5598FF"></path>
                        <path d="M35.3926358,30.1012986 C36.1213261,32.6653597 32.7896725,35.8576621 27.9512847,37.2325934 C23.1128968,38.6069441 18.5996617,37.6430987 17.8709713,35.0796183 C17.142281,32.5155572 20.4750958,29.3226741 25.3134837,27.9483235 C30.1518715,26.5733922 34.664526,27.5372376 35.3926358,30.1012986" id="Fill-10" fill="#FFAC2C"></path>
                        <path d="M40.3943265,30.249904 C38.5430884,25.7973929 34.9968407,24.2399473 34.5793098,27.0769455 C34.4230813,28.1352896 34.2309065,29.4659966 33.9537047,30.2823939 C32.3907288,29.3436406 30.5408733,28.8459217 28.5831786,28.9523782 C24.3498022,29.181882 20.9189976,32.1647395 19.9325462,36.0697596 C18.29353,35.8112223 17.4992535,34.3927232 15.7530894,34.4404213 C13.5105889,34.5005623 12.6776008,41.6345343 18.1013552,44.2192167 C18.083382,44.2192167 18.180852,48.5853182 23.558982,50.6114492 C28.7179775,52.5539358 32.5732258,49.0318827 32.5732258,49.0318827 C32.5732258,49.0318827 37.3706837,49.9416024 39.770104,44.6395127 C41.8646714,40.0100349 40.7275217,36.5073376 40.7275217,36.5073376 C40.7275217,36.5073376 41.9469332,33.9841789 40.3943265,30.249904" id="Fill-1" fill="#0D264C" transform="translate(27.603230, 38.422029) rotate(4.000000) translate(-27.603230, -38.422029) "></path>
                    </g>
                </g>
            </g>
        </g>
    </g>
</svg>