<?xml version="1.0" encoding="UTF-8"?>
<svg width="538px" height="612px" viewBox="0 0 538 612" version="1.1" xmlns="http://www.w3.org/2000/svg" xmlns:xlink="http://www.w3.org/1999/xlink">
    <!-- Generator: Sketch 51.2 (57519) - http://www.bohemiancoding.com/sketch -->
    <title>Group</title>
    <desc>Created with Sketch.</desc>
    <defs>
        <path d="M63.7001093,0.515578105 C63.3531726,0.171859368 62.8324218,0 62.4852546,0 L8.50490478,0 C3.81860865,0 0,3.78067787 0,8.59228372 L0,104.825998 C0,109.465745 3.81860865,113.418282 8.50490478,113.418282 L84.7021111,113.418282 C89.3884073,113.418282 93.2070159,109.637604 93.2070159,104.825998 L93.2070159,33.5100663 C93.2070159,33.1663475 93.0334323,32.6507694 92.6862651,32.3070507 L63.7001093,0.515578105 Z" id="path-1"></path>
        <filter x="-16.1%" y="-13.2%" width="132.2%" height="126.5%" filterUnits="objectBoundingBox" id="filter-2">
            <feOffset dx="0" dy="0" in="SourceAlpha" result="shadowOffsetOuter1"></feOffset>
            <feGaussianBlur stdDeviation="5" in="shadowOffsetOuter1" result="shadowBlurOuter1"></feGaussianBlur>
            <feColorMatrix values="0 0 0 0 0.745098039   0 0 0 0 0.333333333   0 0 0 0 0.337254902  0 0 0 0.5 0" type="matrix" in="shadowBlurOuter1"></feColorMatrix>
        </filter>
        <polygon id="path-3" points="107.248869 368 164.557423 367.538682 202 367.237279 201.530874 299 199.230015 299.031882 200.279744 365.50471 104 366.145472"></polygon>
        <filter x="-5.1%" y="-4.3%" width="110.2%" height="117.4%" filterUnits="objectBoundingBox" id="filter-4">
            <feOffset dx="0" dy="4" in="SourceAlpha" result="shadowOffsetOuter1"></feOffset>
            <feGaussianBlur stdDeviation="1" in="shadowOffsetOuter1" result="shadowBlurOuter1"></feGaussianBlur>
            <feColorMatrix values="0 0 0 0 0.723001701   0 0 0 0 0.402181107   0 0 0 0 0.402181107  0 0 0 0.4 0" type="matrix" in="shadowBlurOuter1"></feColorMatrix>
        </filter>
        <rect id="path-5" x="137" y="104" width="208" height="171" rx="8"></rect>
        <filter x="-7.2%" y="-8.8%" width="114.4%" height="117.5%" filterUnits="objectBoundingBox" id="filter-6">
            <feOffset dx="0" dy="0" in="SourceAlpha" result="shadowOffsetOuter1"></feOffset>
            <feGaussianBlur stdDeviation="5" in="shadowOffsetOuter1" result="shadowBlurOuter1"></feGaussianBlur>
            <feColorMatrix values="0 0 0 0 0.746704932   0 0 0 0 0.331471111   0 0 0 0 0.337319475  0 0 0 0.601109601 0" type="matrix" in="shadowBlurOuter1"></feColorMatrix>
        </filter>
        <linearGradient x1="50%" y1="18.9615168%" x2="50%" y2="122.169502%" id="linearGradient-7">
            <stop stop-color="#FFCCCC" stop-opacity="0" offset="0%"></stop>
            <stop stop-color="#FF7274" stop-opacity="0.7" offset="100%"></stop>
        </linearGradient>
        <ellipse id="path-8" cx="62.4123563" cy="104.613497" rx="62.4123563" ry="62.3558282"></ellipse>
        <filter x="-12.0%" y="-12.0%" width="124.0%" height="124.1%" filterUnits="objectBoundingBox" id="filter-9">
            <feOffset dx="0" dy="0" in="SourceAlpha" result="shadowOffsetOuter1"></feOffset>
            <feGaussianBlur stdDeviation="5" in="shadowOffsetOuter1" result="shadowBlurOuter1"></feGaussianBlur>
            <feColorMatrix values="0 0 0 0 0.465640944   0 0 0 0 0.267682912   0 0 0 0 0.267682912  0 0 0 0.4 0" type="matrix" in="shadowBlurOuter1"></feColorMatrix>
        </filter>
        <polygon id="path-10" points="23.9529832 21.7957366 0.502470973 21.7957366 0.502470973 0.267577397 23.9529832 0.267577397"></polygon>
    </defs>
    <g id="SB-WEB-DESIGN" stroke="none" stroke-width="1" fill="none" fill-rule="evenodd">
        <g id="Service-page" transform="translate(-357.000000, -6860.000000)">
            <g id="Group" transform="translate(354.000000, 6856.000000)">
                <rect id="Rectangle-Copy-5" fill-opacity="0.1" fill="#E7585A" transform="translate(403.000000, 503.500000) rotate(74.000000) translate(-403.000000, -503.500000) " x="311" y="405" width="184" height="197" rx="16"></rect>
                <rect id="Rectangle-Copy-5" fill-opacity="0.1" fill="#E7585A" transform="translate(226.000000, 142.500000) rotate(74.000000) translate(-226.000000, -142.500000) " x="125" y="-20" width="202" height="325" rx="16"></rect>
                <rect id="Rectangle-Copy-5" fill-opacity="0.1" fill="#E7585A" transform="translate(272.000000, 336.500000) rotate(74.000000) translate(-272.000000, -336.500000) " x="107" y="101" width="330" height="471" rx="16"></rect>
                <g id="Page-1" transform="translate(81.500000, 292.000000) rotate(72.000000) translate(-81.500000, -292.000000) translate(46.000000, 253.000000)">
                    <path d="M35.2136897,35.6579693 L33.3585255,41.5513637 L24.6670545,69.1583866 C16.0707475,66.4676458 8.50520613,60.5033301 4.00576464,51.9085299 C-0.494211467,43.309997 -1.07481905,33.7121679 1.62292117,25.1386974 L31.1702872,34.3904522 L35.2136897,35.6579693 Z" id="Fill-1" fill="#FFCDCD"></path>
                    <path d="M52.1229501,73.1734349 C49.4743958,74.5507999 46.7306774,75.5607609 43.9516735,76.220915 C37.6852817,77.7070614 31.2381851,77.4143113 25.2797399,75.5463634 L34.6507249,45.7818419 L35.8269097,42.0422133 L52.1229501,73.1734349 Z" id="Fill-3" fill="#FFADAD"></path>
                    <g id="Group-7" transform="translate(1.603888, 0.380735)" fill="#FFFFFF">
                        <path d="M49.9029548,66.4047232 L33.6095875,35.2772342 L29.5667196,34.0097172 L0.0188189568,24.7579624 C2.72030159,16.1802259 8.69638962,8.63431345 17.3135472,4.14654584 C18.2160017,3.67675933 19.1264756,3.24909896 20.0503153,2.86783068 C27.9344959,-0.426540556 36.4596972,-0.638771011 44.1567574,1.77308414 C52.7562722,4.46382503 60.3218136,10.4249413 64.8217897,19.0234742 C73.8179995,36.2168072 67.1410122,57.4286547 49.9029548,66.4047232" id="Fill-5"></path>
                    </g>
                </g>
                <g id="contract" transform="translate(402.000000, 487.000000) rotate(-16.000000) translate(-402.000000, -487.000000) translate(355.000000, 430.000000)">
                    <g id="Shape" fill-rule="nonzero">
                        <use fill="black" fill-opacity="1" filter="url(#filter-2)" xlink:href="#path-1"></use>
                        <use fill="#FFFFFF" xlink:href="#path-1"></use>
                    </g>
                    <polygon id="Path" fill="#FF8585" points="63.708918 0.555354633 92.6849143 32.3043268 63.708918 32.3043268"></polygon>
                    <path d="M15.6400621,33.1955948 L41.3970671,33.1955948 C42.4343451,33.1955948 43.1256342,32.6422614 43.1256342,31.812445 C43.1256342,30.9826286 42.4341155,30.4292952 41.3970671,30.4292952 L15.6400621,30.4292952 C14.602784,30.4292952 13.9114949,30.9826286 13.9114949,31.812445 C13.9114949,32.6422614 14.602784,33.1955948 15.6400621,33.1955948 Z" id="Shape" fill="#FF4444" fill-rule="nonzero"></path>
                    <path d="M13.9114949,51.1765419 C13.9114949,52.006542 14.6014994,52.5596917 15.6362771,52.5596917 L76.1795894,52.5596917 C77.2145961,52.5596917 77.9043715,52.0063583 77.9043715,51.1765419 C77.9043715,50.3465418 77.214367,49.7933921 76.1795894,49.7933921 L15.6365061,49.7933921 C14.6014994,49.7933921 13.9114949,50.3467255 13.9114949,51.1765419 Z" id="Shape" fill="#FF4444" fill-rule="nonzero"></path>
                    <path d="M76.1795832,70.5406389 L15.6362832,70.5406389 C14.6012728,70.5406389 13.9114949,71.0939723 13.9114949,71.9237886 C13.9114949,72.753605 14.6015019,73.3069384 15.6362832,73.3069384 L76.1795832,73.3069384 C77.2145936,73.3069384 77.9043715,72.753605 77.9043715,71.9237886 C77.9043715,71.0939723 77.0420919,70.5406389 76.1795832,70.5406389 Z" id="Shape" fill="#FF4444" fill-rule="nonzero"></path>
                    <path d="M76.0070814,91.2878856 L15.6362832,91.2878856 C14.6012728,91.2878856 13.9114949,91.841219 13.9114949,92.6710354 C13.9114949,93.5008517 14.6015019,94.0541851 15.6362832,94.0541851 L76.1795832,94.0541851 C77.2145936,94.0541851 77.9043715,93.5008517 77.9043715,92.6710354 C77.9043715,91.841219 77.0420919,91.2878856 76.0070814,91.2878856 Z" id="Shape" fill="#FF4444" fill-rule="nonzero"></path>
                </g>
                <g id="Page-1" transform="translate(153.000000, 333.500000) scale(1, -1) rotate(107.000000) translate(-153.000000, -333.500000) ">
                    <use fill="black" fill-opacity="1" filter="url(#filter-4)" xlink:href="#path-3"></use>
                    <use fill="#FF7E7E" fill-rule="evenodd" xlink:href="#path-3"></use>
                </g>
                <rect id="Rectangle-Copy-5" fill="#CDB7DF" transform="translate(318.500000, 359.500000) rotate(74.000000) translate(-318.500000, -359.500000) " x="268" y="199" width="101" height="321" rx="10"></rect>
                <path d="M383.117266,202.944444 L400.618705,209.888889 L400.618705,218.5 L372,206.277778 L372,199.5 L400.618705,187.277778 L400.618705,195.833333 L383.117266,202.833333 L383.117266,202.944444 Z M403.71295,224 L417.471942,181 L425.28705,181 L411.528058,224 L403.71295,224 Z M445.882734,202.833333 L428.381295,195.888889 L428.381295,187.277778 L457,199.5 L457,206.277778 L428.381295,218.5 L428.381295,209.944444 L445.882734,202.944444 L445.882734,202.833333 Z" id="&lt;/&gt;" fill="#FF9D9D" transform="translate(414.500000, 202.500000) rotate(-106.000000) translate(-414.500000, -202.500000) "></path>
                <g id="Rectangle-9" transform="translate(241.000000, 189.500000) rotate(-16.000000) translate(-241.000000, -189.500000) ">
                    <use fill="black" fill-opacity="1" filter="url(#filter-6)" xlink:href="#path-5"></use>
                    <use fill="#FFFFFF" fill-rule="evenodd" xlink:href="#path-5"></use>
                </g>
                <rect id="Rectangle-9" fill-opacity="0.1" fill="#7F00FF" transform="translate(239.000000, 188.000000) rotate(-16.000000) translate(-239.000000, -188.000000) " x="184" y="137" width="110" height="102"></rect>
                <g id="noun_273690_cc" transform="translate(239.000000, 185.500000) rotate(-16.000000) translate(-239.000000, -185.500000) translate(196.000000, 145.000000)" fill-rule="nonzero">
                    <path d="M9.86895481,80.3259607 L0.877045706,80.3259607 C0.481140423,80.3259607 0.160114611,80.0082897 0.160114611,79.6180984 L0.160114611,65.9740122 C0.160114611,65.581456 0.481140423,65.263785 0.877045706,65.263785 L9.86895481,65.263785 C10.2656567,65.263785 10.5858859,65.581456 10.5858859,65.9740122 L10.5858859,79.6180984 C10.5858859,80.0082897 10.2656567,80.3259607 9.86895481,80.3259607 Z" id="Shape" fill="#FF7B9D"></path>
                    <path d="M34.9320693,80.3259607 L25.9417534,80.3259607 C25.5450515,80.3259607 25.2248223,80.0082897 25.2248223,79.6180984 L25.2248223,58.3341437 C25.2248223,57.9415875 25.5450515,57.6239166 25.9417534,57.6239166 L34.9312727,57.6239166 C35.3279746,57.6239166 35.6490004,57.9415875 35.6490004,58.3341437 L35.6490004,79.6180984 C35.649797,80.0082897 35.3287712,80.3259607 34.9320693,80.3259607 Z" id="Shape" fill="#FF7B9D"></path>
                    <path d="M59.9967769,80.3259607 L51.0048678,80.3259607 C50.6089625,80.3259607 50.2879367,80.0082897 50.2879367,79.6180984 L50.2879367,47.8320835 C50.2879367,47.4371625 50.6089625,47.1202798 51.0048678,47.1202798 L59.9967769,47.1202798 C60.3934788,47.1202798 60.713708,47.4371625 60.713708,47.8320835 L60.713708,79.6173101 C60.7145046,80.0082897 60.3934788,80.3259607 59.9967769,80.3259607 Z" id="Shape" fill="#FF7B9D"></path>
                    <path d="M85.0598914,80.3259607 L76.0703721,80.3259607 C75.6744668,80.3259607 75.353441,80.0082897 75.353441,79.6180984 L75.353441,31.8555199 C75.353441,31.4645403 75.6744668,31.1476576 76.0703721,31.1476576 L85.0598914,31.1476576 C85.4565933,31.1476576 85.7776191,31.4645403 85.7776191,31.8555199 L85.7776191,79.6180984 C85.7784157,80.0082897 85.4565933,80.3259607 85.0598914,80.3259607 Z" id="Shape" fill="#FF7B9D"></path>
                    <path d="M66.1005188,3.67623585 C66.0798074,3.48074602 65.903761,3.33885825 65.7062067,3.36092968 L49.6788138,5.03126411 C49.2845017,5.07383044 49.2144017,5.30715701 49.5218855,5.55388408 L56.7294328,11.3231987 C46.5322829,22.686833 28.2784206,39.591185 5.96991471,45.251719 C4.8196386,45.5449537 4.0867757,46.6784794 4.34327772,47.8261939 C4.59898314,48.9746966 5.75005584,49.7022656 6.90272172,49.4113956 C30.4515184,43.4844279 49.5250719,25.790234 60.077501,14.0048777 L67.3121323,19.7962637 C67.6196161,20.0445673 67.8362886,19.9286923 67.7948659,19.5377127 L66.1005188,3.67623585 Z" id="Shape" fill="#B66EFF" transform="translate(36.046011, 26.417113) rotate(6.000000) translate(-36.046011, -26.417113) "></path>
                </g>
                <g id="Page-1" transform="translate(213.500000, 99.500000) rotate(168.000000) translate(-213.500000, -99.500000) translate(186.000000, 76.000000)">
                    <path d="M7.90740055,10.7370847 C7.90740055,10.7370847 8.36067355,8.81171514 7.69191011,7.61674228 C7.02314667,6.42176941 6.27038773,5.08852936 5.56796697,5.43835552 C4.86554621,5.78818168 5.71162149,7.11421363 5.71162149,7.11421363 C5.71162149,7.11421363 4.22166078,6.63747959 1.24173936,5.68401151 C1.04697866,6.5876008 1.45550517,7.74306522 2.46731888,9.15040477 C3.98503945,11.2614141 5.48994457,12.3149366 5.48994457,12.3149366 L7.90740055,10.7370847 Z" id="Fill-4" fill="#E8C739" transform="translate(4.626046, 8.848260) rotate(23.000000) translate(-4.626046, -8.848260) "></path>
                    <path d="M49.7429871,5.92759808 C49.7429871,5.92759808 50.1962601,4.00222853 49.5274967,2.80725567 C48.8587332,1.6122828 48.1059743,0.279042745 47.4035535,0.628868907 C46.7011328,0.97869507 47.547208,2.30472702 47.547208,2.30472702 C47.547208,2.30472702 46.0572473,1.82799298 43.0773259,0.874524898 C42.8825652,1.77811419 43.2910917,2.93357861 44.3029054,4.34091816 C45.820626,6.45192749 47.3255311,7.50545 47.3255311,7.50545 L49.7429871,5.92759808 Z" id="Fill-4" fill="#E8C739" transform="translate(46.461633, 4.038773) scale(-1, 1) rotate(-277.000000) translate(-46.461633, -4.038773) "></path>
                    <path d="M3.67973252,12.1807997 C3.55610004,13.0469301 1.39103117,25.312275 10.4990497,35.0561484 C17.661888,42.7190434 33.2659222,47.5110403 46.2076056,36.6286445 C51.5966958,32.0970693 54.1503144,24.0894383 54.3330633,17.7596174 C54.5313656,10.8910719 50.0525688,4.93177985 50.0525688,4.93177985 L47.5346122,7.76463109 C47.5346122,7.76463109 48.2943307,13.6160165 45.8879972,19.300299 C43.8172207,24.1919228 40.821645,26.0356316 37.6191746,27.3380395 C32.4124931,29.4555371 29.1384175,29.1590279 23.9346192,29.041087 C19.0489508,28.9303562 15.2849597,27.8761417 12.0572311,24.1400191 C8.39707435,19.9033575 7.34717511,11.7481666 7.34717511,11.7481666 L3.67973252,12.1807997 Z" id="Fill-7" fill="#9964C5"></path>
                    <path d="M41.1882112,26.5406107 C41.9653391,29.2329577 38.4122237,32.5849785 33.2522184,34.0287009 C28.0922131,35.4718135 23.2789741,34.4597446 22.5018462,31.7680073 C21.7247183,29.0756603 25.2790721,25.7230298 30.4390774,24.2799171 C35.5990827,22.8361948 40.4117026,23.8482637 41.1882112,26.5406107" id="Fill-10" fill="#ECE85A"></path>
                    <path d="M19.7757316,30.166204 C19.7757316,30.166204 21.246392,31.5702972 21.4761246,37.7689141 C21.7473453,45.0698325 27.6015023,48.3541788 37.5091088,45.0003289 C44.8401184,42.5183215 47.2142286,36.4654182 44.7255617,30.9173298 C41.9489549,24.7254194 35.2854704,24.5772672 29.504382,27.6750514 C24.1134056,30.5643251 19.7757316,30.166204 19.7757316,30.166204" id="Fill-12" fill="#1C0943"></path>
                </g>
                <path d="M66.0010285,395.205207 L82.3027977,394.999865 L84.8578097,461.302748 L171.001028,548.375903 L84.6692773,550.004906 C75.834294,550.171614 68.5369812,543.144589 68.3702729,534.309606 C68.3700881,534.299812 68.3699123,534.290019 68.3697455,534.280225 L66.0010285,395.205207 Z" id="Rectangle" fill="url(#linearGradient-7)" transform="translate(118.501028, 472.503838) rotate(-15.000000) translate(-118.501028, -472.503838) "></path>
                <g id="Back" transform="translate(89.000000, 304.000000)">
                    <g id="Oval">
                        <use fill="black" fill-opacity="1" filter="url(#filter-9)" xlink:href="#path-8"></use>
                        <use fill="#FFD0D0" fill-rule="evenodd" xlink:href="#path-8"></use>
                    </g>
                    <ellipse id="Oval" fill="#FFFFFF" cx="62.4123563" cy="104.613497" rx="46.9382184" ry="46.8957055"></ellipse>
                    <polygon id="Rectangle-10" fill="#FFFFFF" transform="translate(243.135404, 51.309450) scale(1, -1) rotate(-164.000000) translate(-243.135404, -51.309450) " points="160.963095 48.7729119 325.322961 48.7327624 325.322961 53.7915009 160.947846 53.8861367"></polygon>
                    <polygon id="Rectangle-10" fill="#FFFFFF" transform="translate(210.673167, 77.251703) scale(1, -1) rotate(-164.000000) translate(-210.673167, -77.251703) " points="166.556973 74.7151656 254.797547 74.6750161 254.797547 79.7337546 166.548786 79.8283904"></polygon>
                    <polygon id="Rectangle-10" fill="#FFFFFF" transform="translate(166.057054, 41.284796) scale(1, -1) rotate(-164.000000) translate(-166.057054, -41.284796) " points="129.718965 38.7482588 202.401886 38.7081093 202.401886 43.7668478 129.712222 43.8614836"></polygon>
                    <polygon id="Rectangle-10" fill="#FFFFFF" transform="translate(197.036437, 98.121931) scale(1, -1) rotate(-164.000000) translate(-197.036437, -98.121931) " points="172.46881 95.5853929 221.608623 95.5452434 221.608623 100.603982 172.464251 100.698618"></polygon>
                    <polygon id="Rectangle-10" fill="#FFFFFF" transform="translate(297.406447, 69.308308) scale(1, -1) rotate(-164.000000) translate(-297.406447, -69.308308) " points="235.00567 66.7717701 359.818803 66.7316207 359.818803 71.7903591 234.99409 71.8849949"></polygon>
                    <polygon id="Rectangle-10" fill="#FFFFFF" transform="translate(256.889505, 30.906036) scale(1, -1) rotate(-164.000000) translate(-256.889505, -30.906036) " points="155.04655 28.3694987 358.751358 28.3293492 358.751358 33.3880877 155.027652 33.4827235"></polygon>
                </g>
                <g id="Search_lighter" transform="translate(153.000000, 405.000000) rotate(-29.000000) translate(-153.000000, -405.000000) translate(124.000000, 376.000000)" fill="#FF7E7E" fill-rule="nonzero">
                    <path d="M1.78896591,46.9165317 C1.78896591,46.9165317 -2.23620739,50.9216015 1.78896591,55.4988241 C5.52662684,59.5038938 10.1268249,55.4988241 10.1268249,55.4988241 L23.9274191,42.6253855 C23.9274191,42.6253855 30.2526914,45.2000732 34.5653771,45.2000732 C47.2159218,45.2000732 57.2788551,35.1873988 57.2788551,22.6000366 C57.2788551,10.2987509 47.2159218,0 34.5653771,0 C21.9148324,0 11.8518992,10.0126744 11.8518992,22.6000366 C11.8518992,26.6051064 12.7144363,30.0380233 14.4395106,33.1848639 L1.78896591,46.9165317 Z M18.4646839,22.6000366 C18.4646839,13.7316678 25.6524934,6.29368108 34.8528895,6.29368108 C43.7657733,6.29368108 51.2410951,13.4455914 51.2410951,22.6000366 C51.2410951,31.4684054 44.0532856,38.9063921 34.8528895,38.9063921 C25.9400058,38.9063921 18.4646839,31.4684054 18.4646839,22.6000366 Z" id="Fill-2"></path>
                </g>
                <g id="Page-1" transform="translate(223.788691, 289.046846) scale(1, -1) rotate(-155.000000) translate(-223.788691, -289.046846) translate(199.788691, 261.046846)">
                    <path d="M3.90061626,21.4984042 C3.90061626,21.4984042 5.81338173,20.9436671 6.5440539,19.7636982 C7.27472608,18.5837292 8.08676436,17.261411 7.44131224,16.8168085 C6.79586013,16.3722059 6.03500222,17.7730336 6.03500222,17.7730336 C6.03500222,17.7730336 5.73882535,16.2264236 5.14647161,13.1332036 C4.25742823,13.4093459 3.43650362,14.3408521 2.68369779,15.9277224 C1.55448905,18.3080277 1.35007431,20.153403 1.35007431,20.153403 L3.90061626,21.4984042 Z" id="Fill-4" fill="#E8C739" transform="translate(4.513179, 17.315804) rotate(-22.000000) translate(-4.513179, -17.315804) "></path>
                    <path d="M43.0132618,8.15317324 C43.0132618,8.15317324 43.4624681,6.18657506 42.7997047,4.96601382 C42.1369414,3.74545257 41.3909362,2.38366336 40.6948175,2.74098048 C39.9986988,3.0982976 40.7653135,4.65756352 40.7653135,4.65756352 C40.7653135,4.65756352 37.4153568,0.760712581 36.5311052,1.51804941 C35.6468536,2.27538625 36.2978478,4.45117943 37.6219882,6.53251718 C38.9461286,8.61385493 40.6174951,9.76481228 40.6174951,9.76481228 L43.0132618,8.15317324 Z" id="Fill-4" fill="#E8C739" transform="translate(39.643783, 5.592610) scale(-1, 1) rotate(-313.000000) translate(-39.643783, -5.592610) "></path>
                    <path d="M2.28344938,20.8642484 C2.00555789,21.3897131 -2.79188452,34.1486689 6.25655385,45.0237502 C12.9405499,53.0570702 32.825331,54.577417 43.0814578,41.6051965 C47.2431242,36.3414108 48.3182527,28.7090096 46.5450186,21.2221363 C45.4155078,16.4531643 42.1953731,8.76375571 42.1953731,8.76375571 L38.5872561,9.62204075 C38.5872561,9.62204075 40.5593404,16.8935283 38.693543,23.6010251 C37.8906606,26.487368 36.978343,29.953375 33.2876018,33.7327353 C29.6861791,37.4206325 23.3305724,38.4409831 18.1734622,38.3205166 C13.3316278,38.2074148 9.9888828,33.7415824 8.898801,31.5477863 C6.21322396,26.1430466 6.08444602,21.314676 6.08444602,21.314676 L2.28344938,20.8642484 Z" id="Fill-7" fill="#DF5858"></path>
                    <path d="M35.5655988,36.0205684 C36.3357544,38.7705676 32.8145173,42.1943664 27.7008073,43.6690037 C22.5870972,45.1430182 17.8170422,44.1092776 17.0468867,41.3599011 C16.2767311,38.6099019 19.7991955,35.1854803 24.9129056,33.7114658 C30.0266156,32.2368285 34.796057,33.2705692 35.5655988,36.0205684" id="Fill-10" fill="#ECE85A"></path>
                    <g id="Group-14" transform="translate(15.955414, 33.583494)">
                        <mask id="mask-11" fill="white">
                            <use xlink:href="#path-10"></use>
                        </mask>
                        <g id="Clip-13"></g>
                        <path d="M0.672091116,12.0910292 C1.15443554,16.2602422 1.82026723,17.9914464 6.16198074,20.418246 C12.9418042,24.2075905 21.3220784,19.7164233 23.5546089,12.5867265 C24.6751699,9.00537562 23.1888618,7.31091278 22.0867109,5.10642971 C20.9060103,2.74626281 19.6387822,0.902343494 17.7897953,0.365545639 C15.627223,-0.261548839 17.2878134,2.23997899 10.3508905,4.50237644 C3.35321427,6.78470143 2.42902762,3.63241518 0.859874061,6.7647739 C0.377529633,7.72689999 0.456079362,10.2284278 0.672091116,12.0910292" id="Fill-12" fill="#430909" mask="url(#mask-11)"></path>
                    </g>
                </g>
                <g id="Page-1" transform="translate(313.500000, 269.500000) rotate(-5.000000) translate(-313.500000, -269.500000) translate(290.000000, 242.000000)">
                    <path d="M8.42749556,13.7720565 C8.42749556,13.7720565 8.86175613,11.8692341 8.22104381,10.6882551 C7.58033149,9.50727608 6.85914683,8.18964905 6.18618893,8.53537854 C5.51323103,8.88110803 6.32381789,10.1916114 6.32381789,10.1916114 C6.32381789,10.1916114 3.44748481,7.34174116 2.48375097,7.95638327 C1.52001712,8.57102537 1.76153658,10.1176693 3.21559674,12.2039575 C4.6696569,14.2902457 6.11143916,15.3314308 6.11143916,15.3314308 L8.42749556,13.7720565 Z" id="Fill-4" fill="#E8C739" transform="translate(5.238783, 11.600491) rotate(42.000000) translate(-5.238783, -11.600491) "></path>
                    <path d="M33.0435412,6.20019526 C33.0435412,6.20019526 33.1564349,5.51196632 32.6504521,3.31827958 C32.3131302,1.85582175 31.7793976,1.05482947 31.0492543,0.915302725 C30.7391843,1.84808753 30.5841493,2.31447994 30.5841493,2.31447994 C30.5841493,2.31447994 26.4645083,0.666652262 25.7283594,1.4593542 C24.9922106,2.25205613 26.0291066,3.83497853 27.7443181,5.53712022 C29.4595296,7.23926191 30.7274848,7.75956962 30.7274848,7.75956962 L33.0435412,6.20019526 Z" id="Fill-4" fill="#E8C739" transform="translate(29.271270, 4.337436) scale(-1, 1) rotate(-277.000000) translate(-29.271270, -4.337436) "></path>
                    <path d="M3.22786631,14.4340909 C1.84177557,17.1978415 -0.178267851,31.9041675 7.8281465,39.9484097 C15.0160073,47.1702309 32.9699884,48.8078148 43.4278373,36.6407181 C49.3642123,29.7344151 46.3324423,20.3467661 41.8757047,14.1643524 C37.7801699,8.48300151 32.4501669,5.70730225 32.4501669,5.70730225 L30.2148581,8.63818885 C30.2148581,8.63818885 36.0549961,13.0839033 36.9437203,18.9661324 C37.2715039,21.1356446 36.7081881,24.8855305 34.0654289,27.6281193 C30.6078526,31.2163047 24.3340899,33.5791185 19.3485636,33.4625587 C14.6678234,33.3531247 11.5148342,29.5031514 9.99233559,26.8902794 C6.41439672,20.7499149 6.85430418,14.9956305 6.85430418,14.9956305 L3.22786631,14.4340909 Z" id="Fill-7" fill="#DF5858"></path>
                    <path d="M36.1620409,31.2371967 C36.9065723,33.8980148 33.5024915,37.2107815 28.5589213,38.6375969 C23.6153511,40.0638099 19.0040021,39.063593 18.2594707,36.4033774 C17.5149392,33.7425594 20.9202066,30.4291901 25.8637768,29.0029772 C30.807347,27.5761617 35.4181027,28.5763786 36.1620409,31.2371967" id="Fill-10" fill="#ECE85A"></path>
                    <path d="M41.2724641,31.3914098 C39.3809817,26.7708794 35.7576416,25.1546623 35.3310339,28.098717 C35.1714092,29.1969986 34.9750566,30.577921 34.6918287,31.4251258 C33.0948751,30.4509478 31.2048053,29.934447 29.2045521,30.0449208 C24.8791457,30.2830851 21.3737584,33.3785032 20.3658625,37.4308826 C18.6912154,37.1625892 17.879672,35.6905618 16.0955478,35.7400598 C13.8042973,35.8024703 12.9532009,43.2056489 18.4948629,45.8878663 C18.476499,45.8878663 18.5760879,50.4187264 24.0711338,52.5213152 C29.3422814,54.5371031 33.2813394,50.8821424 33.2813394,50.8821424 C33.2813394,50.8821424 38.1830899,51.8261912 40.6346715,46.3240226 C42.7747729,41.5198475 41.6129027,37.884973 41.6129027,37.884973 C41.6129027,37.884973 42.8588231,35.2666007 41.2724641,31.3914098" id="Fill-1" fill="#430909" transform="translate(28.203300, 39.871917) rotate(4.000000) translate(-28.203300, -39.871917) "></path>
                </g>
            </g>
        </g>
    </g>
</svg>