<?xml version="1.0" encoding="UTF-8"?>
<svg width="58px" height="38px" viewBox="0 0 58 38" version="1.1" xmlns="http://www.w3.org/2000/svg" xmlns:xlink="http://www.w3.org/1999/xlink">
    <!-- Generator: Sketch 51.1 (57501) - http://www.bohemiancoding.com/sketch -->
    <title>devops</title>
    <desc>Created with Sketch.</desc>
    <defs></defs>
    <g id="11-July" stroke="none" stroke-width="1" fill="none" fill-rule="evenodd">
        <g id="service-page" transform="translate(-118.000000, -5692.000000)">
            <g id="devops" transform="translate(118.000000, 5692.000000)">
                <polygon id="Fill-1" fill="#2D94F3" points="17.0510455 7.76344086 0 38 28.3261252 38 45.3380282 7.76344086"></polygon>
                <polygon id="Fill-2" fill="#2E71DF" points="38.0140751 25.3333333 25.2050401 25.3333333 19.5148899 25.3333333 16.3380282 31.0537634 22.0277721 31.0537634 34.8652517 31.0537634 40.5554019 31.0537634 43.7042254 25.3333333"></polygon>
                <path d="M57.3015901,6.2539828 C57.0434493,5.42166022 56.6648155,4.64204731 56.188562,3.9363914 C55.235238,2.52589677 53.8889845,1.40714409 52.2997028,0.73335914 C51.2409986,0.285531183 50.073238,0.0383268817 48.8572803,0.0383268817 C48.6599986,0.0379182796 48.4655761,0.0452731183 48.2723789,0.0591655914 C47.4354634,0.119230108 46.6365338,0.308412903 45.8927451,0.594434409 C45.0909563,0.902929032 44.3532944,1.31970323 43.6679141,1.80348817 C43.5702944,1.87254194 43.4734915,1.94282151 43.3779141,2.01432688 C42.8951254,2.37553118 42.4397028,2.77146667 42.0018437,3.18742366 C41.9761113,3.21193978 41.9483366,3.2344129 41.9226042,3.25933763 C41.307069,3.84976774 40.7282944,4.48310108 40.1707592,5.13523011 C39.4269704,6.00555269 38.7228014,6.90978925 38.0312944,7.7944129 C37.7756042,8.12088602 37.5231817,8.44490753 37.2719845,8.7628 C36.8525056,9.2943914 36.4362944,9.80882151 36.0217169,10.2962839 C35.5250408,10.8793591 35.0287732,11.4215742 34.5341394,11.9016817 C34.3691254,12.0614452 34.2045197,12.2138538 34.0399141,12.3589075 C33.601238,12.746671 33.1646042,13.0772301 32.7324634,13.3444559 C32.5878718,13.4339398 32.4440972,13.5152516 32.3011394,13.590843 C31.9339423,13.7832946 31.5687873,13.9193591 31.2003648,14.0190581 C31.1378718,14.0362194 31.0761958,14.0611441 31.0137028,14.0758538 C30.6832662,14.150628 30.3479282,14.190671 29.9925761,14.190671 C29.4395338,14.190671 28.911407,14.1073161 28.4143225,13.9520473 C27.9176465,13.7967785 27.4511958,13.5712301 27.0272239,13.2848 C26.1792803,12.712757 25.5045197,11.8980043 25.1026042,10.9480043 C24.8354775,10.3138538 24.6868014,9.62045591 24.6868014,8.88292903 C24.6868014,8.32927312 24.7705338,7.80135914 24.9253366,7.30368172 C25.0801394,6.8064129 25.3060127,6.34019785 25.5923366,5.91647742 C26.1649845,5.06862796 26.9790268,4.3923914 27.9286746,3.99155269 C28.5625901,3.72391828 29.2549141,3.5751871 29.9925761,3.5751871 C30.3152521,3.5751871 30.622407,3.60787527 30.9230268,3.6703914 C31.2228296,3.73290753 31.5193648,3.82484301 31.8159,3.94701505 C32.4069282,4.19135914 33.0044915,4.56032688 33.6106324,5.04574624 C34.0137732,5.36813333 34.4193648,5.7411871 34.8261817,6.15469247 C34.9936465,6.32507957 35.1619282,6.51344516 35.3298014,6.69649892 L37.1441394,3.47916559 C37.0767451,3.41256344 37.0142521,3.34105806 36.9464493,3.27568172 C36.273731,2.62968172 35.5573085,2.03189677 34.7730831,1.52645591 C33.8777592,0.947466667 32.8876746,0.487380645 31.7987451,0.239767742 C31.219562,0.106972043 30.6134211,0.0366924731 29.9917592,0.0366924731 C29.0809141,0.0366924731 28.1949845,0.175617204 27.3629704,0.43507957 C26.5313648,0.693316129 25.7520408,1.07086452 25.0466465,1.54811183 C23.6370831,2.50097204 22.5179282,3.84854194 21.8448014,5.4384129 C21.3971394,6.49710108 21.1500268,7.66529462 21.1500268,8.88211183 C21.1500268,9.79370323 21.2884915,10.6791441 21.5482662,11.5122839 C21.806407,12.3446065 22.1850408,13.1242194 22.6612944,13.8298753 C23.6146183,15.2399613 24.9612803,16.3599398 26.550562,17.0329075 C27.6092662,17.4811441 28.7770268,17.7279398 29.9925761,17.7279398 C30.9773507,17.728757 31.9180127,17.548972 32.785562,17.2359828 C32.8431535,17.2151441 32.9007451,17.1934882 32.9575197,17.1718323 C33.8740831,16.8188 34.7073225,16.3256172 35.4731676,15.7519398 C35.8562944,15.4646925 36.2234915,15.1570151 36.5780268,14.8350366 C36.6711535,14.7500473 36.762238,14.6638323 36.8533225,14.5772086 C36.8778296,14.5535097 36.903562,14.5310366 36.928069,14.506929 C37.5440127,13.9160903 38.1223789,13.2831656 38.6803225,12.630628 C39.4232944,11.760714 40.1282803,10.8552516 40.8189704,9.97144516 C41.4994493,9.10112258 42.1639986,8.24877849 42.827731,7.4703914 C43.4906465,6.6915957 44.1523366,5.98716559 44.8107592,5.40695054 C45.2486183,5.0195957 45.6852521,4.68862796 46.1178014,4.42099355 C46.6336746,4.10146667 47.1401535,3.8791871 47.6527592,3.74067097 C47.7140268,3.72432688 47.7752944,3.70348817 47.8369704,3.6895957 C48.1665901,3.61482151 48.5019282,3.57477849 48.8572803,3.57477849 C49.410731,3.57477849 49.9388577,3.65854194 50.4355338,3.81299355 C50.9326183,3.96785376 51.399069,4.19340215 51.8222239,4.48024086 C52.6701676,5.05269247 53.3449282,5.86703656 53.7472521,6.81703656 C54.0139704,7.4515957 54.1626465,8.14458495 54.1626465,8.88292903 C54.1626465,9.43617634 54.0789141,9.96449892 53.9245197,10.4617677 C53.7697169,10.9590366 53.5438437,11.4252516 53.2575197,11.848972 C52.6852803,12.6976387 51.871238,13.3726495 50.9215901,13.7734882 C50.2876746,14.0423484 49.5953507,14.190671 48.8572803,14.190671 C48.5346042,14.190671 48.2282662,14.1571656 47.927238,14.0950581 C47.6266183,14.0329505 47.3309,13.9410151 47.0343648,13.818843 C46.4433366,13.5744989 45.8453648,13.2051226 45.2396324,12.7201118 C44.8360831,12.3964989 44.4309,12.0234452 44.0244915,11.610757 C43.8586606,11.4420043 43.6928296,11.2556817 43.5261817,11.0750796 L41.7151113,14.2948645 C41.7788296,14.3581978 41.8388718,14.4260258 41.903407,14.4885419 C42.5757169,15.1341333 43.291731,15.7327355 44.0763648,16.2385849 C44.9716887,16.8171656 45.9621817,17.2772516 47.0507028,17.5248645 C47.6298859,17.6564344 48.2360268,17.7275312 48.8572803,17.7275312 C49.7689423,17.7275312 50.6548718,17.5886065 51.4864775,17.3295527 C52.3180831,17.0713161 53.0969986,16.6925419 53.802393,16.2161118 C55.2127732,15.262843 56.3315197,13.9152731 57.0038296,12.3254022 C57.4519,11.266714 57.6998296,10.0981118 57.6998296,8.88211183 C57.6998296,7.97011183 57.5609563,7.08426237 57.3015901,6.2539828" id="Fill-3" fill="#2E71DF"></path>
            </g>
        </g>
    </g>
</svg>