<?xml version="1.0" encoding="utf-8"?>
<!-- Generator: Adobe Illustrator 19.0.0, SVG Export Plug-In . SVG Version: 6.00 Build 0)  -->
<svg version="1.1" id="Layer_1" xmlns="http://www.w3.org/2000/svg" xmlns:xlink="http://www.w3.org/1999/xlink" x="0px" y="0px"
	 viewBox="-7 37 114 28" style="enable-background:new -7 37 114 28;" xml:space="preserve">
<style type="text/css">
	.st0{fill:#CF0A2C;}
</style>
<title>balsamiq-logo-noborder-print</title>
<desc>Created with Sketch.</desc>
<g id="service-page" transform="translate(-196.000000, -3857.000000)">
	<g id="Group-76" transform="translate(108.000000, 3105.000000)">
		<g id="Group-75">
			<g id="s3">
				<g id="Group-66">
					<g id="s1">
						<g id="Group-48" transform="translate(0.000000, 229.000000)">
							<g id="Group-47">
								<g id="Group-46" transform="translate(0.000000, 316.000000)">
									<g id="Group-55" transform="translate(88.000000, 201.000000)">
										<g id="Group-41" transform="translate(0.000000, 6.000000)">
											<g id="Group-43">
												<g id="balsamiq-logo-noborder-print">
													<g id="Group">
														<path id="Shape" class="st0" d="M-6.8,58.6c0.1-1,0.1-2.5,0.1-3.8V37.1H-4v9.2H-4c0.9-1.6,2.6-2.7,5-2.7
															c3.6,0,6.2,3,6.2,7.5c0,5.3-3.3,7.9-6.6,7.9c-2.1,0-3.8-0.8-4.9-2.8h-0.1l-0.1,2.4H-6.8z M-4,52.7
															c0,0.3,0.1,0.7,0.1,1c0.5,1.9,2.1,3.1,4,3.1c2.8,0,4.5-2.3,4.5-5.6c0-2.9-1.5-5.5-4.4-5.5c-1.8,0-3.5,1.2-4.1,3.3
															C-3.9,49.3-4,49.7-4,50.1V52.7z"/>
														<path id="Shape_1_" class="st0" d="M18.2,58.6L18,56.8h-0.1c-0.8,1.2-2.4,2.2-4.5,2.2c-3,0-4.5-2.1-4.5-4.2
															c0-3.6,3.2-5.5,8.8-5.5V49c0-1.2-0.3-3.4-3.3-3.4c-1.4,0-2.8,0.4-3.8,1.1L10,44.9c1.2-0.8,3-1.3,4.8-1.3
															c4.5,0,5.6,3.1,5.6,6v5.5c0,1.3,0.1,2.5,0.2,3.5H18.2z M17.8,51.1c-2.9-0.1-6.2,0.5-6.2,3.3c0,1.7,1.2,2.6,2.5,2.6
															c1.9,0,3.1-1.2,3.6-2.5c0.1-0.3,0.2-0.6,0.2-0.9V51.1z"/>
														<polygon id="Shape_2_" class="st0" points="23.9,37.1 26.6,37.1 26.6,58.6 23.9,58.6 														"/>
														<path id="Shape_3_" class="st0" d="M29.8,55.9c0.8,0.5,2.2,1.1,3.5,1.1c1.9,0,2.9-1,2.9-2.2c0-1.3-0.8-2-2.7-2.7
															c-2.6-0.9-3.9-2.4-3.9-4.2c0-2.4,1.9-4.3,5.1-4.3c1.5,0,2.8,0.4,3.6,0.9l-0.7,1.9c-0.6-0.4-1.6-0.9-3-0.9
															c-1.6,0-2.5,0.9-2.5,2c0,1.2,0.9,1.8,2.8,2.5c2.6,1,3.9,2.2,3.9,4.4c0,2.6-2,4.4-5.5,4.4c-1.6,0-3.1-0.4-4.1-1
															L29.8,55.9z"/>
														<path id="Shape_4_" class="st0" d="M49.9,58.6l-0.2-1.9h-0.1c-0.8,1.2-2.4,2.2-4.5,2.2c-3,0-4.5-2.1-4.5-4.2
															c0-3.6,3.2-5.5,8.8-5.5V49c0-1.2-0.3-3.4-3.3-3.4c-1.4,0-2.8,0.4-3.8,1.1l-0.6-1.8c1.2-0.8,3-1.3,4.8-1.3
															c4.5,0,5.6,3.1,5.6,6v5.5c0,1.3,0.1,2.5,0.2,3.5H49.9z M49.5,51.1c-2.9-0.1-6.2,0.5-6.2,3.3c0,1.7,1.2,2.6,2.5,2.6
															c1.9,0,3.1-1.2,3.6-2.5c0.1-0.3,0.2-0.6,0.2-0.9V51.1z"/>
														<path id="Shape_5_" class="st0" d="M55.6,47.9c0-1.5,0-2.8-0.1-4h2.3l0.1,2.4H58c0.8-1.4,2.2-2.7,4.6-2.7
															c2,0,3.5,1.2,4.2,2.9h0.1c0.5-0.8,1-1.5,1.6-1.9c0.9-0.7,1.9-1,3.2-1c1.9,0,4.8,1.3,4.8,6.4v8.7H74v-8.3
															c0-2.8-1-4.5-3.2-4.5c-1.5,0-2.7,1.1-3.2,2.4c-0.1,0.4-0.2,0.9-0.2,1.3v9.1h-2.6v-8.8c0-2.3-1-4-3.1-4
															c-1.7,0-2.9,1.3-3.3,2.7c-0.2,0.4-0.2,0.9-0.2,1.3v8.9h-2.6L55.6,47.9L55.6,47.9z"/>
														<path id="Shape_6_" class="st0" d="M83.1,39.8c0,0.9-0.6,1.6-1.7,1.6c-0.9,0-1.6-0.7-1.6-1.6c0-0.9,0.7-1.7,1.7-1.7
															C82.5,38.1,83.1,38.9,83.1,39.8z M80.2,58.6V43.9h2.7v14.7H80.2z"/>
														<path id="Shape_7_" class="st0" d="M96.6,56.3L96.6,56.3c-0.9,1.5-2.5,2.6-4.9,2.6c-3.4,0-6.2-3-6.2-7.4
															c0-5.5,3.6-7.9,6.7-7.9c2.3,0,3.8,1.1,4.5,2.6h0.1l0.1-2.2h2.5c-0.1,1.2-0.1,2.5-0.1,4v16.7h-2.7L96.6,56.3L96.6,56.3
															z M96.6,49.9c0-0.4,0-0.8-0.1-1.1c-0.4-1.6-1.8-3-3.8-3c-2.8,0-4.4,2.3-4.4,5.6c0,2.9,1.4,5.5,4.3,5.5
															c1.7,0,3.2-1.1,3.8-2.9c0.1-0.4,0.2-0.9,0.2-1.3L96.6,49.9L96.6,49.9z"/>
													</g>
													<path id="Shape_8_" class="st0" d="M106.2,45.7c0,1.2-1,2.2-2.2,2.2c-1.2,0-2.2-1-2.2-2.2c0-1.2,1-2.2,2.2-2.2
														C105.3,43.5,106.2,44.4,106.2,45.7z M102.3,45.7c0,1,0.7,1.7,1.7,1.7c1,0,1.7-0.8,1.7-1.7c0-1-0.7-1.8-1.7-1.8
														C103,43.9,102.3,44.7,102.3,45.7z M103.6,46.8h-0.5v-2.2c0.2,0,0.5-0.1,0.8-0.1c0.4,0,0.6,0.1,0.8,0.2
														c0.1,0.1,0.2,0.3,0.2,0.5c0,0.2-0.2,0.4-0.5,0.5v0c0.2,0.1,0.3,0.2,0.4,0.5c0.1,0.3,0.1,0.5,0.2,0.5h-0.5
														c-0.1-0.1-0.1-0.3-0.2-0.5c0-0.2-0.2-0.3-0.5-0.3h-0.2L103.6,46.8L103.6,46.8z M103.7,45.6h0.2c0.3,0,0.5-0.1,0.5-0.3
														c0-0.2-0.1-0.3-0.5-0.3c-0.1,0-0.2,0-0.3,0V45.6z"/>
												</g>
											</g>
										</g>
									</g>
								</g>
							</g>
						</g>
					</g>
				</g>
			</g>
		</g>
	</g>
</g>
</svg>
