<?xml version="1.0" encoding="utf-8"?>
<!-- Generator: Adobe Illustrator 19.0.0, SVG Export Plug-In . SVG Version: 6.00 Build 0)  -->
<svg version="1.1" id="Layer_1" xmlns="http://www.w3.org/2000/svg" xmlns:xlink="http://www.w3.org/1999/xlink" x="0px" y="0px"
	 viewBox="-33 31 189 196" style="enable-background:new -33 31 189 196;" xml:space="preserve">
<style type="text/css">
	.st0{fill:#00988A;}
	.st1{fill:#00AE93;}
	.st2{fill:#00C09D;}
	.st3{fill:#00D7B5;}
	.st4{fill:#6EC8FF;}
	.st5{fill:#0EF1D0;}
	.st6{fill:#5BFFE7;}
	.st7{fill:#ABE7FF;}
	.st8{fill:#009789;}
	.st9{fill:#00AC92;}
	.st10{fill:#00BE9C;}
	.st11{fill:#00D5B4;}
	.st12{fill:#3AEFCF;}
	.st13{fill:#6AFFE6;}
</style>
<title>logo</title>
<desc>Created with Sketch.</desc>
<g id="Internal-Flow">
	<g id="logo-teal-alt" transform="translate(-0.100098, 0.840088)">
		<g id="logo">
			<g id="XMLID_111_" transform="translate(0.822411, 96.645651)">
				<polygon id="XMLID_123_" class="st0" points="-33,129.1 15.7,129.1 68.6,31.9 				"/>
				<polygon id="XMLID_121_" class="st1" points="15.7,129.1 55.5,129.1 68.6,31.9 				"/>
				<path id="XMLID_119_" class="st2" d="M68.2,33.8l-12.6,95.3H90h7.7L68.6,31.9L68.2,33.8z"/>
				<path id="XMLID_117_" class="st3" d="M68.6,32.7l28.7,96.4c15.3,0,30.2-3.1,40.6-10.7L68.6,31.9V32.7z"/>
				<polygon id="XMLID_116_" class="st4" points="68.6,32.7 97.7,129.1 97.7,129.1 				"/>
				<path id="XMLID_115_" class="st5" d="M137.9,118.4c9.6-7.3,16.1-18.4,17.2-34.8v-2.7l-86.6-49L137.9,118.4z"/>
				<path id="XMLID_113_" class="st6" d="M155.2,80.9c0.8-33.3-26.4-49.4-59-49.4l-28,0.4L155.2,80.9z"/>
				<polygon id="XMLID_112_" class="st7" points="68.6,31.9 155.2,80.9 155.2,80.9 68.9,32.3 				"/>
			</g>
			<g id="XMLID_15_">
				<polygon id="XMLID_129_" class="st8" points="156,31 107.3,31 54.4,128.2 				"/>
				<polygon id="XMLID_128_" class="st9" points="107.3,31 67.5,31 54.4,128.2 				"/>
				<path id="XMLID_127_" class="st10" d="M54.8,126.3L67.5,31H33h-7.7l29.1,97.2L54.8,126.3z"/>
				<path id="XMLID_126_" class="st11" d="M54.4,127.4L25.3,31C10,31-4.6,34.1-14.9,41.7l69.4,86.5V127.4z"/>
				<polygon id="XMLID_125_" class="st4" points="54.4,127.4 25.3,31 25.3,31 				"/>
				<path id="XMLID_124_" class="st12" d="M-14.9,41.7c-9.6,6.9-16.1,18-17.2,34.8v2.7l86.6,49L-14.9,41.7z"/>
				<path id="XMLID_120_" class="st13" d="M-32.2,79.2c-0.8,33.3,26.4,49.4,59,49.4l28-0.4L-32.2,79.2z"/>
				<polygon id="XMLID_118_" class="st7" points="54.4,128.2 -32.2,79.2 -32.2,79.2 54,127.8 				"/>
			</g>
		</g>
	</g>
</g>
</svg>
