<?xml version="1.0" encoding="utf-8"?>
<!-- Generator: Adobe Illustrator 19.0.0, SVG Export Plug-In . SVG Version: 6.00 Build 0)  -->
<svg version="1.1" id="Layer_1" xmlns="http://www.w3.org/2000/svg" xmlns:xlink="http://www.w3.org/1999/xlink" x="0px" y="0px"
	 viewBox="157 25.1 62.4 57.9" style="enable-background:new 157 25.1 62.4 57.9;" xml:space="preserve">
<style type="text/css">
	.st0{fill:none;}
	.st1{fill:#2684FF;}
	.st2{fill:url(#SVGID_1_);}
</style>
<title>Bitbucket-blue</title>
<polygon class="st0" points="181.7,63.2 194.8,63.2 197.9,44.8 178.2,44.8 "/>
<path class="st1" d="M159,26c-1.1,0-2,0.9-2,2c0,0.1,0,0.2,0,0.3l8.5,51.5c0.2,1.3,1.3,2.3,2.7,2.3h40.7c1,0,1.8-0.7,2-1.7l8.5-52.1
	c0.2-1.1-0.6-2.1-1.7-2.3c-0.1,0-0.2,0-0.3,0L159,26z M194.8,63.2h-13l-3.5-18.4h19.7L194.8,63.2z"/>
<linearGradient id="SVGID_1_" gradientUnits="userSpaceOnUse" x1="221.0177" y1="55.4502" x2="189.9977" y2="31.2402" gradientTransform="matrix(1 0 0 -1 0 105.46)">
	<stop  offset="0.18" style="stop-color:#0052CC"/>
	<stop  offset="1" style="stop-color:#2684FF"/>
</linearGradient>
<path class="st2" d="M216.7,44.8h-18.8l-3.1,18.4h-13l-15.4,18.2c0.5,0.4,1.1,0.7,1.8,0.7h40.7c1,0,1.8-0.7,2-1.7L216.7,44.8z"/>
</svg>
